<svg id="svg" version="1.1" width="1000" height="294" xmlns="http://www.w3.org/2000/svg" xmlns:xlink="http://www.w3.org/1999/xlink" style="display: block;"><g id="svgg"><path id="path0" d="M0.000 58.800 L 0.000 117.600 200.000 117.600 L 400.000 117.600 400.000 58.800 L 400.000 0.000 200.000 0.000 L 0.000 0.000 0.000 58.800 M51.799 13.009 C 63.198 14.609,72.460 18.851,78.793 25.373 L 80.585 27.219 78.931 28.709 C 77.191 30.279,72.986 35.358,70.909 38.400 C 67.091 43.993,65.421 43.899,63.761 38.000 C 62.105 32.114,62.415 32.183,58.868 36.910 C 54.891 42.209,52.398 47.593,50.816 54.300 C 50.543 55.455,50.183 56.400,50.015 56.400 C 49.361 56.400,47.633 53.264,46.754 50.485 C 46.247 48.881,45.332 46.991,44.720 46.285 L 43.608 45.000 42.904 45.857 C 42.517 46.329,41.408 47.724,40.440 48.957 C 39.472 50.191,38.563 51.200,38.419 51.200 C 37.276 51.200,34.085 48.372,32.005 45.515 C 27.915 39.899,25.808 37.454,23.878 36.084 L 22.023 34.767 21.760 35.815 C 21.616 36.392,21.796 39.504,22.160 42.732 C 23.006 50.219,22.873 50.769,20.004 51.599 C 17.154 52.423,17.154 52.431,20.188 57.872 C 23.930 64.581,23.532 66.011,18.100 65.385 C 16.841 65.239,16.000 65.298,16.000 65.531 C 16.000 66.238,20.426 69.979,23.236 71.649 C 26.590 73.642,26.590 73.639,23.590 75.238 C 22.264 75.944,20.329 77.325,19.290 78.306 L 17.400 80.091 18.979 80.652 C 19.963 81.002,21.844 81.180,23.979 81.125 C 28.455 81.011,29.231 81.451,32.720 86.093 C 34.253 88.132,36.352 90.406,37.383 91.146 C 40.041 93.053,40.243 93.699,39.236 97.080 C 38.776 98.624,38.400 100.812,38.400 101.943 C 38.400 104.474,38.218 104.503,33.069 102.777 C 3.260 92.791,-8.408 58.311,9.283 32.489 C 15.715 23.102,26.707 15.864,37.600 13.843 C 46.309 12.227,46.253 12.230,51.799 13.009 M47.010 27.984 C 45.015 29.309,44.637 31.516,46.102 33.283 C 47.047 34.424,49.200 35.230,49.200 34.443 C 49.200 34.200,49.335 34.036,49.500 34.079 C 50.311 34.293,51.566 33.449,52.002 32.394 C 53.344 29.154,49.870 26.085,47.010 27.984 M85.366 32.966 C 87.374 35.954,90.229 41.521,90.973 43.900 C 91.242 44.761,91.155 44.800,88.987 44.800 C 84.413 44.800,82.820 43.084,82.553 37.871 C 82.461 36.072,82.312 33.284,82.222 31.675 C 82.024 28.147,82.164 28.204,85.366 32.966 M81.037 30.300 C 80.474 32.122,80.103 37.989,80.425 40.000 C 81.342 45.738,83.816 47.364,89.464 45.942 C 91.642 45.394,91.739 45.494,92.404 49.023 C 92.958 51.955,92.838 52.263,89.002 57.800 C 83.950 65.092,83.360 67.300,85.996 69.045 C 87.843 70.267,89.552 70.160,91.079 68.726 C 92.925 66.991,92.442 70.332,89.969 76.410 C 86.099 85.921,83.410 87.564,72.522 87.075 C 61.770 86.591,57.339 88.642,55.532 94.938 C 55.270 95.852,55.010 96.663,54.954 96.740 C 54.898 96.818,54.246 96.418,53.505 95.853 C 51.713 94.486,49.523 93.601,47.913 93.594 C 44.517 93.578,45.133 92.605,52.761 85.932 C 58.381 81.015,60.040 78.982,62.105 74.481 C 64.368 69.551,64.246 68.597,61.942 73.200 C 59.583 77.913,55.724 82.200,50.000 86.468 C 42.135 92.331,39.891 91.986,33.943 84.000 C 30.341 79.162,30.140 79.033,25.870 78.800 L 22.200 78.600 24.800 77.131 C 27.312 75.712,30.617 72.800,29.716 72.800 C 29.474 72.800,28.564 72.205,27.694 71.478 C 26.824 70.751,25.097 69.626,23.857 68.978 C 21.554 67.775,21.052 67.201,22.300 67.199 C 26.447 67.190,26.346 62.799,22.052 56.477 L 20.431 54.089 22.515 53.342 L 24.600 52.594 24.727 50.197 C 24.796 48.879,24.649 46.027,24.399 43.861 C 24.150 41.694,24.050 39.816,24.179 39.688 C 24.508 39.359,27.087 41.927,28.106 43.600 C 30.669 47.803,34.919 52.298,37.491 53.524 L 38.889 54.191 41.235 51.695 C 44.102 48.645,43.698 48.563,45.204 52.500 C 46.762 56.575,47.135 57.164,49.173 58.779 L 50.800 60.067 51.541 58.333 C 51.949 57.380,52.752 54.773,53.327 52.540 C 54.481 48.054,56.095 44.483,58.950 40.100 C 61.177 36.680,61.420 36.595,61.788 39.100 C 63.072 47.864,67.807 46.909,75.173 36.400 C 79.124 30.762,81.734 28.047,81.037 30.300 M326.604 36.100 C 326.724 36.595,326.773 43.390,326.712 51.200 L 326.600 65.400 324.500 65.521 L 322.400 65.642 322.400 50.688 C 322.400 42.463,322.520 35.613,322.667 35.467 C 323.407 34.726,326.386 35.205,326.604 36.100 M133.000 39.000 L 133.000 40.600 125.700 40.709 L 118.400 40.818 118.400 45.399 L 118.400 49.980 124.700 50.090 L 131.000 50.200 131.000 51.800 L 131.000 53.400 124.700 53.510 L 118.400 53.620 118.400 59.610 L 118.400 65.600 116.200 65.600 L 114.000 65.600 114.000 51.667 C 114.000 44.003,114.123 37.610,114.274 37.459 C 114.424 37.309,118.699 37.234,123.774 37.293 L 133.000 37.400 133.000 39.000 M218.683 38.400 C 218.963 38.950,220.555 42.910,222.222 47.200 C 226.418 58.003,226.913 59.200,227.188 59.200 C 227.320 59.200,228.116 57.445,228.955 55.300 C 236.736 35.412,235.803 37.126,238.764 37.282 L 241.000 37.400 241.105 51.500 L 241.210 65.600 238.941 65.600 L 236.672 65.600 236.924 55.300 C 237.198 44.139,237.195 44.130,235.171 49.400 C 234.580 50.940,232.880 55.215,231.393 58.900 L 228.690 65.600 227.188 65.600 C 226.362 65.600,225.592 65.375,225.478 65.100 C 223.605 60.582,218.852 48.770,218.116 46.806 C 217.582 45.379,217.112 44.179,217.072 44.138 C 217.033 44.098,217.056 48.911,217.124 54.833 L 217.248 65.600 215.224 65.600 L 213.200 65.600 213.200 51.667 C 213.200 44.003,213.328 37.605,213.484 37.449 C 214.255 36.678,218.171 37.395,218.683 38.400 M357.053 38.627 C 361.968 41.083,362.794 48.098,358.513 51.024 L 357.308 51.847 358.469 52.514 C 360.196 53.505,361.181 56.038,361.191 59.513 C 361.196 61.177,361.457 63.041,361.800 63.862 C 362.130 64.651,362.400 65.366,362.400 65.449 C 362.400 65.532,361.416 65.600,360.214 65.600 C 357.496 65.600,357.368 65.390,357.100 60.460 C 356.785 54.687,355.589 53.664,349.100 53.623 L 345.600 53.600 345.600 59.600 L 345.600 65.600 343.400 65.600 L 341.200 65.600 341.200 51.667 C 341.200 44.003,341.335 37.594,341.500 37.423 C 342.401 36.490,354.679 37.441,357.053 38.627 M272.481 42.100 L 272.600 44.600 274.500 44.722 L 276.400 44.844 276.400 46.422 L 276.400 48.000 274.374 48.000 L 272.347 48.000 272.474 54.833 C 272.613 62.381,272.872 63.109,275.257 62.643 C 276.486 62.404,277.181 64.513,276.209 65.535 C 275.489 66.293,272.438 66.247,270.907 65.455 C 268.646 64.286,268.400 63.280,268.400 55.220 L 268.400 48.000 266.800 48.000 L 265.200 48.000 265.200 46.400 L 265.200 44.800 266.800 44.800 L 268.400 44.800 268.400 42.200 L 268.400 39.600 270.381 39.600 L 272.362 39.600 272.481 42.100 M345.600 45.605 L 345.600 50.513 349.930 50.308 C 355.470 50.045,357.200 48.925,357.200 45.600 C 357.200 42.266,355.410 41.108,349.900 40.877 L 345.600 40.697 345.600 45.605 M145.640 44.855 C 149.415 46.120,149.864 47.380,150.086 57.319 L 150.271 65.637 148.238 65.519 C 146.342 65.408,146.191 65.322,146.002 64.237 C 145.816 63.167,145.755 63.129,145.227 63.767 C 141.155 68.681,133.000 65.985,133.000 59.725 C 133.000 55.350,136.211 53.200,142.746 53.200 L 146.000 53.200 146.000 51.774 C 146.000 47.521,139.166 45.807,138.162 49.807 C 137.768 51.381,134.000 51.318,134.000 49.738 C 134.000 45.949,140.618 43.173,145.640 44.855 M165.450 45.650 C 165.313 46.338,165.200 47.238,165.200 47.650 C 165.200 48.285,164.888 48.400,163.169 48.400 C 161.458 48.400,160.954 48.584,159.969 49.569 L 158.800 50.738 158.800 58.169 L 158.800 65.600 156.800 65.600 L 154.800 65.600 154.800 55.178 L 154.800 44.756 156.698 44.878 C 158.457 44.991,158.611 45.088,158.809 46.200 C 158.976 47.138,159.082 47.248,159.298 46.702 C 160.221 44.364,165.902 43.392,165.450 45.650 M181.874 45.180 C 182.575 45.607,183.357 46.346,183.611 46.821 C 184.073 47.684,184.076 47.683,185.337 46.467 C 188.726 43.198,194.064 43.726,196.314 47.552 C 197.384 49.373,197.402 49.517,197.529 57.500 L 197.659 65.600 195.673 65.600 L 193.686 65.600 193.530 58.100 C 193.333 48.690,192.256 46.661,188.172 48.009 C 185.396 48.925,185.200 49.588,185.200 58.054 L 185.200 65.600 183.024 65.600 L 180.848 65.600 180.724 57.841 C 180.611 50.743,180.532 50.006,179.800 49.195 C 178.093 47.303,175.250 47.259,173.412 49.097 L 172.400 50.109 172.400 57.875 L 172.400 65.642 170.300 65.521 L 168.200 65.400 168.200 55.200 L 168.200 45.000 170.100 44.878 C 171.903 44.762,172.000 44.809,172.000 45.778 C 172.000 46.340,172.180 46.800,172.400 46.800 C 172.620 46.800,172.800 46.639,172.800 46.442 C 172.800 44.737,179.598 43.792,181.874 45.180 M313.907 45.019 C 317.504 46.522,317.942 47.892,318.091 58.100 L 318.200 65.600 316.100 65.600 C 314.127 65.600,314.000 65.540,314.000 64.600 C 314.000 63.587,313.455 63.264,312.996 64.006 C 311.082 67.103,303.544 66.574,301.653 63.209 C 298.685 57.927,302.317 53.546,309.900 53.262 L 313.600 53.123 313.600 51.594 C 313.600 49.509,313.295 48.869,311.971 48.185 C 309.754 47.038,306.639 47.908,306.162 49.807 C 305.741 51.487,302.000 51.302,302.000 49.601 C 302.000 45.758,309.119 43.018,313.907 45.019 M376.818 44.798 C 379.929 45.663,382.000 49.281,382.000 53.850 L 382.000 56.400 375.192 56.400 L 368.385 56.400 368.642 57.500 C 369.799 62.438,373.701 64.219,377.993 61.766 L 379.785 60.741 380.493 61.615 C 381.755 63.174,381.406 63.950,378.936 65.081 C 371.281 68.586,364.302 63.881,364.358 55.255 C 364.410 47.302,369.737 42.831,376.818 44.798 M249.601 52.300 C 249.603 59.050,249.682 59.929,250.389 61.089 C 251.724 63.279,255.127 63.335,257.260 61.201 L 258.400 60.062 258.400 52.431 L 258.400 44.800 260.600 44.800 L 262.800 44.800 262.800 55.200 L 262.800 65.600 260.800 65.600 C 258.942 65.600,258.800 65.530,258.800 64.617 L 258.800 63.633 256.804 64.874 C 253.690 66.810,249.607 66.486,247.547 64.141 C 245.613 61.939,245.418 60.956,245.269 52.700 L 245.128 44.800 247.364 44.800 L 249.600 44.800 249.601 52.300 M283.680 52.300 C 283.854 61.511,284.367 62.800,287.858 62.800 C 291.970 62.800,292.800 60.990,292.800 52.020 L 292.800 44.800 294.800 44.800 L 296.800 44.800 296.800 55.222 L 296.800 65.644 294.900 65.522 C 293.296 65.419,292.981 65.264,292.876 64.525 C 292.754 63.669,292.716 63.676,291.004 64.883 C 287.415 67.413,282.380 66.155,280.575 62.277 C 279.658 60.308,279.608 59.800,279.604 52.500 L 279.600 44.800 281.569 44.800 L 283.538 44.800 283.680 52.300 M371.502 48.228 C 370.499 48.772,368.800 51.385,368.800 52.384 C 368.800 52.648,370.491 52.800,373.427 52.800 C 378.595 52.800,378.321 53.017,377.117 49.881 C 376.337 47.849,373.655 47.059,371.502 48.228 M93.394 61.049 C 93.004 66.503,90.669 69.271,87.548 67.979 C 85.636 67.186,85.986 66.077,90.538 58.503 L 93.000 54.406 93.328 55.903 C 93.508 56.726,93.538 59.042,93.394 61.049 M139.000 56.862 C 135.913 58.550,136.883 62.637,140.350 62.546 C 143.448 62.465,146.000 60.411,146.000 58.000 L 146.000 56.400 142.900 56.412 C 141.195 56.419,139.440 56.621,139.000 56.862 M306.755 57.000 C 305.299 57.791,304.614 59.554,305.234 60.914 C 306.809 64.371,313.600 62.139,313.600 58.164 L 313.600 56.400 310.700 56.416 C 308.982 56.426,307.374 56.663,306.755 57.000 M154.800 80.600 C 154.800 86.533,154.766 86.800,154.000 86.800 C 153.234 86.800,153.200 86.533,153.200 80.600 C 153.200 74.667,153.234 74.400,154.000 74.400 C 154.766 74.400,154.800 74.667,154.800 80.600 M158.600 80.605 C 158.600 86.517,158.588 86.602,157.700 86.728 C 156.793 86.857,156.212 75.521,157.080 74.653 C 158.293 73.440,158.600 74.643,158.600 80.605 M171.120 76.686 C 171.238 78.722,171.261 78.757,172.239 78.385 C 175.809 77.028,178.334 82.851,175.498 85.900 C 174.567 86.901,172.106 87.146,171.280 86.320 C 170.907 85.947,170.800 85.947,170.800 86.320 C 170.800 86.584,170.440 86.800,170.000 86.800 C 169.183 86.800,168.697 75.437,169.480 74.653 C 170.306 73.828,171.005 74.695,171.120 76.686 M359.110 80.705 C 359.216 86.511,359.184 86.800,358.444 86.800 C 358.016 86.800,357.603 86.609,357.525 86.376 C 357.432 86.097,357.009 86.147,356.289 86.520 C 353.894 87.763,351.603 85.847,351.603 82.600 C 351.603 79.492,353.836 77.501,356.280 78.430 C 357.161 78.765,357.200 78.699,357.200 76.857 C 357.200 74.768,357.429 74.309,358.380 74.491 C 358.902 74.591,359.018 75.578,359.110 80.705 M140.644 75.792 C 141.642 76.210,142.018 76.594,141.915 77.092 C 141.768 77.806,141.497 77.837,139.507 77.367 C 136.905 76.753,135.600 78.113,135.600 81.437 C 135.600 84.542,137.772 85.959,140.427 84.586 C 142.030 83.757,142.649 84.907,141.222 86.062 C 138.665 88.133,134.345 86.332,133.570 82.873 C 132.437 77.808,136.274 73.967,140.644 75.792 M232.276 75.673 C 233.310 76.509,232.351 77.200,230.157 77.200 L 228.000 77.200 228.000 78.600 L 228.000 80.000 230.000 80.000 C 231.733 80.000,232.000 80.107,232.000 80.800 C 232.000 81.493,231.733 81.600,230.000 81.600 L 228.000 81.600 228.000 83.380 L 228.000 85.160 230.300 85.280 C 234.216 85.484,233.455 86.600,229.400 86.600 L 226.200 86.600 226.089 81.131 C 225.963 74.930,225.700 75.365,229.600 75.316 C 230.810 75.301,232.014 75.461,232.276 75.673 M305.774 75.590 C 307.684 76.316,307.114 77.540,304.900 77.465 C 301.969 77.365,302.002 78.673,304.971 80.349 C 308.299 82.227,308.535 84.965,305.510 86.594 C 303.627 87.607,300.693 86.853,300.472 85.300 C 300.336 84.338,301.115 84.075,301.869 84.829 C 302.516 85.476,304.857 85.103,305.360 84.273 C 305.837 83.485,305.299 82.901,302.400 81.062 C 298.769 78.758,301.682 74.034,305.774 75.590 M204.400 77.400 C 204.400 78.200,204.600 78.400,205.400 78.400 C 206.133 78.400,206.400 78.613,206.400 79.200 C 206.400 79.787,206.133 80.000,205.400 80.000 C 204.436 80.000,204.400 80.093,204.400 82.600 C 204.400 85.107,204.436 85.200,205.400 85.200 C 206.133 85.200,206.400 85.413,206.400 86.000 C 206.400 86.644,206.133 86.800,205.029 86.800 C 202.928 86.800,202.400 85.990,202.400 82.771 C 202.400 80.575,202.276 80.000,201.800 80.000 C 201.467 80.000,201.200 79.644,201.200 79.200 C 201.200 78.756,201.467 78.400,201.800 78.400 C 202.173 78.400,202.400 78.022,202.400 77.400 C 202.400 76.600,202.600 76.400,203.400 76.400 C 204.200 76.400,204.400 76.600,204.400 77.400 M149.015 78.581 C 153.047 80.265,151.604 86.775,147.200 86.775 C 142.151 86.775,141.503 79.874,146.400 78.261 C 147.359 77.945,147.550 77.968,149.015 78.581 M166.500 79.287 C 167.045 79.911,167.200 80.818,167.200 83.385 L 167.200 86.682 164.517 86.728 C 159.472 86.814,158.576 82.383,163.504 81.722 C 164.526 81.585,165.200 81.285,165.200 80.967 C 165.200 80.069,163.985 79.669,162.500 80.079 C 160.980 80.498,160.585 80.336,160.932 79.434 C 161.496 77.964,165.259 77.865,166.500 79.287 M183.658 78.409 C 187.276 79.414,187.154 85.751,183.498 86.723 C 178.506 88.051,175.762 80.655,180.485 78.603 C 182.089 77.906,181.889 77.918,183.658 78.409 M192.167 78.243 C 193.219 78.646,192.953 80.000,191.823 80.000 C 190.324 80.000,189.600 81.397,189.600 84.289 C 189.600 86.533,189.515 86.800,188.800 86.800 C 188.050 86.800,188.000 86.533,188.000 82.550 L 188.000 78.300 189.119 78.524 C 189.734 78.647,190.499 78.582,190.819 78.380 C 191.521 77.936,191.400 77.948,192.167 78.243 M198.335 78.437 C 199.893 78.980,200.511 80.765,200.328 84.189 L 200.200 86.578 197.663 86.683 C 194.479 86.815,193.598 86.381,193.606 84.686 C 193.616 82.645,194.824 81.600,197.174 81.600 C 198.009 81.600,198.400 81.404,198.400 80.987 C 198.400 80.147,196.815 79.621,195.631 80.067 C 195.098 80.268,194.426 80.342,194.138 80.231 C 193.275 79.900,193.996 78.827,195.343 78.436 C 197.041 77.944,196.921 77.944,198.335 78.437 M213.654 79.065 C 214.396 79.718,214.894 81.690,214.546 82.596 C 214.373 83.048,213.670 83.200,211.757 83.200 C 209.852 83.200,209.200 83.340,209.200 83.751 C 209.200 84.846,210.345 85.318,212.407 85.074 C 213.863 84.901,214.400 84.973,214.400 85.339 C 214.400 87.638,208.931 87.303,207.665 84.926 C 205.457 80.781,210.262 76.078,213.654 79.065 M239.402 78.575 C 240.601 79.076,240.928 79.075,241.944 78.568 C 244.634 77.226,246.000 78.998,246.000 83.826 C 246.000 86.732,245.977 86.800,245.000 86.800 C 244.016 86.800,244.000 86.748,244.000 83.587 C 244.000 80.058,243.617 79.499,241.774 80.339 C 240.868 80.752,240.800 80.991,240.800 83.791 C 240.800 86.533,240.729 86.800,240.000 86.800 C 239.286 86.800,239.199 86.532,239.195 84.300 C 239.187 80.904,238.901 80.000,237.833 80.000 C 236.367 80.000,236.000 80.777,236.000 83.880 C 236.000 86.728,235.975 86.800,235.000 86.800 L 234.000 86.800 234.000 82.600 C 234.000 78.667,234.051 78.400,234.800 78.400 C 235.240 78.400,235.600 78.569,235.600 78.776 C 235.600 78.983,236.095 78.894,236.700 78.579 C 238.033 77.884,237.748 77.884,239.402 78.575 M253.085 78.420 C 254.559 78.934,255.200 80.239,255.200 82.730 C 255.200 85.874,252.945 87.783,250.642 86.588 L 249.600 86.047 249.600 88.024 C 249.600 89.727,249.491 90.000,248.808 90.000 C 247.715 90.000,247.549 89.021,247.684 83.400 L 247.800 78.600 249.504 78.563 C 250.441 78.543,251.326 78.408,251.470 78.263 C 251.797 77.936,251.660 77.923,253.085 78.420 M263.900 79.452 C 265.951 81.714,264.610 86.714,261.918 86.844 C 258.523 87.008,257.122 85.878,257.083 82.945 C 257.025 78.618,261.203 76.477,263.900 79.452 M284.189 78.570 C 285.271 79.022,285.608 79.433,285.820 80.567 C 286.261 82.914,285.956 83.200,283.013 83.200 C 280.303 83.200,279.930 83.473,281.075 84.618 C 281.598 85.141,282.185 85.242,283.675 85.066 C 285.362 84.866,285.600 84.929,285.600 85.576 C 285.600 87.173,281.315 87.351,279.782 85.818 C 277.808 83.844,278.474 79.652,280.931 78.583 C 282.534 77.886,282.553 77.886,284.189 78.570 M323.955 79.019 C 324.802 79.812,324.217 80.944,323.232 80.417 C 321.094 79.273,320.000 80.063,320.000 82.753 C 320.000 84.816,322.103 86.252,323.000 84.800 C 323.431 84.102,324.400 84.369,324.400 85.186 C 324.400 87.058,320.194 87.481,318.829 85.746 C 315.839 81.945,320.519 75.802,323.955 79.019 M330.740 78.439 C 332.801 79.157,332.488 80.487,330.339 80.144 C 328.420 79.837,327.600 80.543,327.600 82.503 C 327.600 84.897,328.920 85.806,330.877 84.759 C 332.011 84.152,332.611 85.103,331.718 86.091 C 330.821 87.082,327.853 87.053,326.842 86.042 C 324.868 84.068,325.596 79.344,328.001 78.523 C 328.771 78.260,329.418 78.035,329.440 78.023 C 329.462 78.010,330.047 78.198,330.740 78.439 M338.985 78.568 C 342.323 79.963,341.601 83.200,337.951 83.200 C 336.221 83.200,335.600 83.345,335.600 83.751 C 335.600 84.765,336.729 85.278,338.650 85.137 C 340.721 84.986,341.421 85.639,340.003 86.398 C 335.936 88.575,332.257 84.784,333.997 80.208 C 334.667 78.445,336.920 77.705,338.985 78.568 M348.951 79.211 C 349.407 79.644,349.721 80.529,349.751 81.462 L 349.800 83.000 347.100 83.118 C 345.177 83.202,344.400 83.390,344.400 83.769 C 344.400 84.846,345.557 85.317,347.607 85.074 C 349.756 84.819,350.649 86.013,348.759 86.613 C 344.982 87.812,342.048 85.573,342.533 81.861 C 342.970 78.517,346.630 77.006,348.951 79.211 M268.556 81.384 L 269.423 84.169 269.877 82.584 C 270.127 81.713,270.451 80.415,270.598 79.700 C 271.103 77.229,272.577 77.904,273.412 80.989 C 274.237 84.039,274.465 84.018,275.365 80.811 C 275.896 78.919,276.209 78.400,276.821 78.400 C 277.876 78.400,277.818 79.186,276.466 83.218 C 274.919 87.832,273.741 88.168,272.578 84.329 L 271.818 81.818 271.068 84.332 C 269.872 88.337,268.694 87.876,266.971 82.729 C 265.636 78.737,265.631 78.284,266.928 78.483 C 267.488 78.569,267.919 79.338,268.556 81.384 M289.200 78.880 C 289.200 79.253,289.307 79.253,289.680 78.880 C 290.243 78.317,292.252 78.237,292.578 78.764 C 292.985 79.424,292.366 80.316,291.634 80.125 C 290.265 79.767,289.600 81.043,289.600 84.029 C 289.600 86.718,289.570 86.800,288.600 86.800 L 287.600 86.800 287.600 82.600 C 287.600 78.667,287.651 78.400,288.400 78.400 C 288.840 78.400,289.200 78.616,289.200 78.880 M311.206 81.300 C 311.214 84.879,311.538 85.516,313.076 84.977 C 314.161 84.597,314.204 84.477,314.317 81.492 C 314.430 78.506,314.467 78.400,315.417 78.400 C 316.399 78.400,316.400 78.406,316.400 82.600 C 316.400 86.533,316.349 86.800,315.600 86.800 C 315.160 86.800,314.800 86.629,314.800 86.420 C 314.800 86.212,314.204 86.290,313.475 86.595 C 310.732 87.741,309.215 85.859,309.206 81.300 C 309.200 78.472,309.225 78.400,310.200 78.400 C 311.174 78.400,311.200 78.475,311.206 81.300 M210.089 80.223 C 208.734 81.172,209.017 81.600,211.000 81.600 C 212.904 81.600,213.198 81.255,212.171 80.229 C 211.391 79.448,211.196 79.447,210.089 80.223 M281.695 79.866 C 280.071 80.521,280.377 81.600,282.186 81.600 C 283.512 81.600,284.000 81.443,284.000 81.014 C 284.000 80.531,282.776 79.519,282.326 79.632 C 282.257 79.649,281.973 79.755,281.695 79.866 M336.300 80.032 C 334.935 80.827,335.477 81.600,337.400 81.600 C 339.383 81.600,339.666 81.172,338.311 80.223 C 337.277 79.499,337.225 79.494,336.300 80.032 M345.289 80.223 C 343.934 81.172,344.217 81.600,346.200 81.600 C 348.156 81.600,348.679 80.792,347.226 80.014 C 346.254 79.494,346.344 79.484,345.289 80.223 M145.680 80.480 C 145.058 81.102,145.058 84.098,145.680 84.720 C 147.152 86.192,149.200 84.958,149.200 82.600 C 149.200 80.702,148.660 80.000,147.200 80.000 C 146.628 80.000,145.944 80.216,145.680 80.480 M171.680 80.480 C 171.058 81.102,171.058 84.098,171.680 84.720 C 172.415 85.455,173.923 85.291,174.386 84.426 C 175.767 81.846,173.549 78.611,171.680 80.480 M180.913 80.261 C 180.059 80.607,179.839 83.094,180.564 84.202 C 181.756 86.021,183.888 85.398,184.258 83.122 C 184.661 80.636,183.158 79.351,180.913 80.261 M250.262 80.731 C 248.457 82.726,250.843 86.597,252.720 84.720 C 253.225 84.215,253.370 81.709,252.957 80.633 C 252.628 79.776,251.075 79.833,250.262 80.731 M259.162 81.076 C 258.361 83.136,259.137 85.000,260.795 85.000 C 262.554 85.000,263.419 83.562,262.892 81.514 C 262.407 79.629,259.841 79.328,259.162 81.076 M354.025 80.570 C 353.342 81.393,353.654 84.427,354.474 84.941 C 356.355 86.120,358.366 82.126,356.720 80.480 C 356.066 79.826,354.602 79.875,354.025 80.570 M162.667 83.467 C 161.842 84.291,162.437 85.247,163.700 85.125 C 165.523 84.950,165.882 83.200,164.094 83.200 C 163.456 83.200,162.813 83.320,162.667 83.467 M195.711 83.649 C 195.056 84.304,195.548 85.200,196.563 85.200 C 197.543 85.200,198.400 84.510,198.400 83.720 C 198.400 83.078,196.337 83.023,195.711 83.649 M218.200 85.600 C 218.200 86.333,217.959 86.634,217.298 86.728 C 216.315 86.868,215.757 86.010,216.155 84.972 C 216.561 83.916,218.200 84.419,218.200 85.600 M293.927 85.703 C 294.035 86.647,293.910 86.800,293.027 86.800 C 292.218 86.800,292.000 86.602,292.000 85.867 C 292.000 84.020,293.716 83.875,293.927 85.703 M362.600 85.595 C 362.600 86.250,362.344 86.638,361.848 86.734 C 360.939 86.909,360.425 86.192,360.701 85.135 C 361.014 83.940,362.600 84.324,362.600 85.595 M82.800 88.060 C 82.800 89.625,73.743 97.053,68.400 99.869 C 58.011 105.345,40.000 107.212,40.000 102.812 C 40.000 94.884,46.485 92.649,53.988 97.991 L 55.089 98.776 55.823 97.088 C 58.926 89.951,63.273 87.941,74.181 88.600 C 77.096 88.776,78.750 88.686,80.200 88.271 C 82.814 87.524,82.800 87.525,82.800 88.060 " stroke="none" fill="#ffffff" fill-rule="evenodd"></path><path id="path1" d="M83.600 66.976 C 83.600 67.513,83.747 68.044,83.928 68.155 C 84.108 68.267,84.177 67.827,84.082 67.179 C 83.872 65.749,83.600 65.635,83.600 66.976 M90.577 69.924 C 89.968 70.502,89.459 70.591,88.014 70.372 C 86.078 70.078,85.200 70.241,85.200 70.894 C 85.200 71.140,84.605 71.211,83.700 71.071 C 82.875 70.944,81.120 71.098,79.800 71.414 C 78.480 71.729,76.830 71.990,76.133 71.994 C 75.437 71.997,74.805 72.185,74.730 72.411 C 74.654 72.637,72.734 72.935,70.462 73.073 C 67.679 73.243,66.144 73.513,65.755 73.902 C 65.286 74.371,65.063 74.384,64.569 73.974 C 64.058 73.550,63.921 73.614,63.724 74.368 C 63.595 74.863,63.375 75.083,63.236 74.858 C 63.097 74.633,62.217 75.743,61.281 77.324 C 59.180 80.874,58.526 81.592,52.792 86.650 C 47.060 91.706,46.016 92.800,46.922 92.800 C 48.249 92.800,52.832 94.538,53.752 95.390 L 54.696 96.266 55.383 94.086 C 57.298 88.012,60.372 86.610,71.844 86.575 C 84.931 86.536,87.349 84.714,90.857 72.249 C 91.718 69.188,91.681 68.876,90.577 69.924 M59.946 74.816 C 58.971 75.911,57.637 76.510,58.200 75.600 C 58.347 75.362,57.867 75.200,57.011 75.200 C 56.094 75.200,55.490 75.420,55.341 75.809 C 55.168 76.260,54.524 76.409,52.854 76.385 C 51.614 76.367,50.060 76.434,49.400 76.533 C 41.139 77.778,38.936 78.205,38.580 78.632 C 38.216 79.067,36.182 79.270,32.080 79.280 C 31.557 79.281,31.234 79.480,31.330 79.741 C 31.424 79.993,31.716 80.151,31.980 80.090 C 32.244 80.030,32.353 80.152,32.223 80.362 C 32.093 80.573,32.166 80.855,32.384 80.990 C 32.602 81.125,33.459 82.262,34.288 83.518 C 37.593 88.521,40.709 90.486,43.950 89.614 C 47.011 88.789,56.552 80.849,59.220 76.904 C 61.393 73.692,61.680 72.867,59.946 74.816 M153.600 80.800 C 153.600 84.267,153.752 86.400,154.000 86.400 C 154.248 86.400,154.400 84.267,154.400 80.800 C 154.400 77.333,154.248 75.200,154.000 75.200 C 153.752 75.200,153.600 77.333,153.600 80.800 M157.200 80.800 C 157.200 85.511,157.295 86.400,157.800 86.400 C 158.305 86.400,158.400 85.511,158.400 80.800 C 158.400 76.089,158.305 75.200,157.800 75.200 C 157.295 75.200,157.200 76.089,157.200 80.800 M169.600 80.800 C 169.600 85.741,169.921 87.525,170.517 85.900 C 170.663 85.500,170.806 85.500,171.230 85.900 C 172.305 86.914,174.718 86.519,175.390 85.220 C 177.232 81.658,174.823 76.986,172.176 78.987 C 170.755 80.063,170.400 79.746,170.400 77.400 C 170.400 76.190,170.220 75.200,170.000 75.200 C 169.752 75.200,169.600 77.333,169.600 80.800 M357.600 77.400 C 357.600 79.740,357.449 79.914,356.224 78.987 C 355.099 78.137,354.484 78.254,353.169 79.569 C 350.052 82.686,353.636 88.663,356.869 85.738 C 357.549 85.122,357.600 85.122,357.600 85.738 C 357.600 86.102,357.780 86.400,358.000 86.400 C 358.248 86.400,358.400 84.267,358.400 80.800 C 358.400 77.333,358.248 75.200,358.000 75.200 C 357.780 75.200,357.600 76.190,357.600 77.400 M136.152 76.364 C 133.432 78.023,133.215 84.070,135.816 85.774 C 137.432 86.833,141.200 86.532,141.200 85.343 C 141.200 84.902,141.023 84.866,140.426 85.186 C 137.522 86.740,135.200 84.932,135.200 81.115 C 135.200 77.308,137.345 75.637,140.500 76.986 C 140.931 77.170,141.200 77.111,141.200 76.833 C 141.200 75.587,137.925 75.283,136.152 76.364 M226.800 81.000 L 226.800 86.400 229.624 86.400 C 231.404 86.400,232.356 86.252,232.200 86.000 C 232.064 85.780,230.973 85.600,229.776 85.600 L 227.600 85.600 227.600 83.400 L 227.600 81.200 229.624 81.200 C 230.871 81.200,231.552 81.047,231.400 80.800 C 231.264 80.580,230.344 80.400,229.354 80.400 L 227.556 80.400 227.678 78.500 L 227.800 76.600 229.900 76.479 C 232.903 76.306,232.501 75.600,229.400 75.600 L 226.800 75.600 226.800 81.000 M302.254 76.429 C 300.446 77.851,300.973 80.296,303.285 81.211 C 306.124 82.335,306.884 84.203,305.003 85.435 C 304.053 86.057,303.218 86.033,301.337 85.327 C 300.688 85.083,300.665 85.131,301.149 85.725 C 302.021 86.797,305.234 86.641,306.330 85.474 C 308.068 83.624,307.383 82.089,304.076 80.426 C 301.220 78.990,302.238 75.560,305.190 76.674 C 306.523 77.177,306.856 76.672,305.626 76.014 C 304.453 75.386,303.418 75.513,302.254 76.429 M203.090 77.624 C 203.249 78.231,203.079 78.507,202.444 78.673 C 201.685 78.871,201.657 78.953,202.213 79.360 C 202.665 79.691,202.870 80.611,202.935 82.611 C 202.985 84.145,203.166 85.625,203.337 85.900 C 203.720 86.518,206.000 86.567,206.000 85.957 C 206.000 85.714,205.743 85.613,205.429 85.733 C 204.397 86.129,203.958 84.962,204.081 82.153 C 204.191 79.638,204.275 79.413,205.200 79.157 L 206.200 78.880 205.100 78.840 C 204.204 78.807,204.000 78.615,204.000 77.800 C 204.000 77.207,203.771 76.800,203.437 76.800 C 203.066 76.800,202.948 77.080,203.090 77.624 M24.900 78.291 C 25.725 78.378,27.075 78.378,27.900 78.291 C 28.725 78.205,28.050 78.134,26.400 78.134 C 24.750 78.134,24.075 78.205,24.900 78.291 M145.644 78.942 C 143.588 80.117,143.031 82.862,144.396 85.100 C 145.477 86.874,148.283 86.999,149.819 85.342 C 152.647 82.290,149.154 76.937,145.644 78.942 M162.300 78.865 C 160.590 79.490,161.006 79.941,162.841 79.451 C 164.350 79.048,164.542 79.088,165.241 79.951 C 166.438 81.430,166.191 81.872,164.000 82.162 C 161.564 82.485,160.534 83.648,161.179 85.346 C 161.628 86.526,164.137 86.874,165.170 85.900 C 165.594 85.500,165.737 85.500,165.883 85.900 C 166.384 87.264,166.799 86.077,166.794 83.300 C 166.787 79.954,166.657 79.560,165.326 78.860 C 164.301 78.320,163.789 78.321,162.300 78.865 M180.943 78.797 C 179.030 79.568,178.142 82.803,179.260 84.926 C 180.726 87.713,185.376 86.598,185.627 83.400 C 185.931 79.523,183.955 77.581,180.943 78.797 M190.099 79.279 C 189.330 80.048,189.200 80.078,189.200 79.489 C 189.200 79.110,189.020 78.800,188.800 78.800 C 188.561 78.800,188.400 80.333,188.400 82.600 C 188.400 84.867,188.561 86.400,188.800 86.400 C 189.026 86.400,189.200 85.261,189.200 83.782 C 189.200 80.884,190.400 78.918,191.832 79.468 C 192.305 79.649,192.452 79.557,192.321 79.164 C 192.020 78.260,191.069 78.309,190.099 79.279 M195.300 78.797 C 194.805 79.005,194.400 79.366,194.400 79.601 C 194.400 79.899,194.633 79.903,195.174 79.614 C 196.411 78.952,197.930 79.122,198.386 79.974 C 199.149 81.399,198.873 81.886,197.150 82.162 C 194.746 82.546,194.000 83.060,194.000 84.334 C 194.000 86.245,196.005 87.067,198.026 85.986 C 198.560 85.700,198.800 85.700,198.800 85.986 C 198.800 86.214,198.980 86.400,199.200 86.400 C 199.793 86.400,199.705 80.294,199.100 79.482 C 198.481 78.651,196.502 78.294,195.300 78.797 M209.682 78.819 C 207.731 79.602,207.133 83.385,208.625 85.514 C 209.307 86.488,213.283 86.836,213.819 85.969 C 214.003 85.671,213.529 85.622,212.282 85.809 C 210.198 86.121,208.650 85.061,208.875 83.475 C 208.988 82.686,209.270 82.588,211.739 82.481 L 214.477 82.362 214.223 81.281 C 213.712 79.099,211.700 78.009,209.682 78.819 M236.654 79.229 C 235.697 79.982,235.419 79.949,235.553 79.100 C 235.579 78.935,235.420 78.800,235.200 78.800 C 234.961 78.800,234.800 80.333,234.800 82.600 C 234.800 84.867,234.961 86.400,235.200 86.400 C 235.429 86.400,235.600 85.200,235.600 83.600 C 235.600 81.333,235.752 80.648,236.400 80.000 C 238.280 78.120,239.600 79.576,239.600 83.531 C 239.600 85.177,239.771 86.400,240.000 86.400 C 240.228 86.400,240.400 85.223,240.400 83.670 C 240.400 81.333,240.533 80.814,241.326 80.070 C 243.309 78.207,244.400 79.399,244.400 83.429 C 244.400 85.907,244.508 86.400,245.051 86.400 C 246.179 86.400,245.621 80.108,244.407 79.125 C 243.425 78.330,242.306 78.451,241.133 79.480 C 240.541 79.999,240.371 79.971,239.633 79.233 C 238.586 78.186,237.981 78.186,236.654 79.229 M250.500 79.196 C 249.439 79.842,249.200 79.879,249.200 79.394 C 249.200 79.067,249.020 78.800,248.800 78.800 C 248.554 78.800,248.400 80.800,248.400 84.000 C 248.400 87.200,248.554 89.200,248.800 89.200 C 249.020 89.200,249.200 88.390,249.200 87.400 C 249.200 85.710,249.640 85.094,250.200 86.000 C 250.862 87.071,253.582 86.366,254.340 84.926 C 256.252 81.294,253.585 77.314,250.500 79.196 M259.800 78.778 C 255.859 80.391,256.804 86.400,261.000 86.400 C 263.300 86.400,264.406 85.109,264.387 82.446 C 264.366 79.386,262.318 77.748,259.800 78.778 M281.343 78.788 C 279.184 79.681,278.451 83.340,280.029 85.346 C 280.921 86.480,284.438 86.910,285.027 85.956 C 285.221 85.643,284.820 85.594,283.665 85.789 C 282.238 86.030,281.896 85.933,280.987 85.023 C 279.258 83.294,279.767 82.619,282.904 82.482 C 285.431 82.371,285.600 82.305,285.600 81.426 C 285.600 79.465,283.240 78.003,281.343 78.788 M320.543 78.797 C 318.387 79.667,317.650 83.339,319.229 85.346 C 320.219 86.605,322.744 86.831,323.648 85.742 C 324.196 85.082,323.804 85.109,321.766 85.872 C 320.707 86.269,319.400 84.504,319.400 82.677 C 319.400 79.718,320.660 78.806,323.400 79.782 C 324.095 80.030,324.076 79.958,323.256 79.233 C 322.232 78.330,321.851 78.269,320.543 78.797 M328.082 78.819 C 326.179 79.583,325.495 82.967,326.809 85.122 C 327.693 86.572,331.093 86.943,331.523 85.636 C 331.662 85.216,331.517 85.156,330.955 85.401 C 328.671 86.394,327.200 85.267,327.200 82.524 C 327.200 79.887,328.855 78.559,330.826 79.614 C 331.365 79.902,331.600 79.899,331.600 79.604 C 331.600 78.715,329.505 78.248,328.082 78.819 M336.143 78.788 C 333.984 79.681,333.251 83.340,334.829 85.346 C 335.705 86.460,339.234 86.916,339.806 85.991 C 339.972 85.722,339.507 85.669,338.458 85.837 C 337.076 86.058,336.712 85.949,335.801 85.037 C 334.058 83.294,334.561 82.620,337.704 82.482 C 340.231 82.371,340.400 82.305,340.400 81.426 C 340.400 79.465,338.040 78.003,336.143 78.788 M345.000 78.883 C 343.018 80.020,342.423 84.023,344.000 85.600 C 344.845 86.445,348.524 86.770,348.976 86.040 C 349.098 85.841,348.286 85.706,347.168 85.740 C 344.950 85.806,343.859 84.979,344.085 83.403 C 344.185 82.704,344.549 82.585,346.900 82.482 C 350.068 82.343,350.459 81.598,348.431 79.569 C 347.185 78.323,346.289 78.144,345.000 78.883 M266.521 79.338 C 266.634 79.634,267.126 81.353,267.613 83.159 C 268.759 87.404,269.817 87.628,270.682 83.808 C 271.253 81.285,271.841 80.260,272.160 81.233 C 272.262 81.545,272.633 82.835,272.984 84.100 C 273.964 87.630,274.790 87.294,276.129 82.821 C 277.338 78.782,277.335 78.800,276.832 78.800 C 276.481 78.800,275.555 81.321,275.021 83.728 C 274.695 85.197,273.922 84.912,273.516 83.173 C 272.114 77.174,271.652 77.219,270.010 83.512 C 269.418 85.780,269.010 85.402,268.160 81.797 C 267.690 79.801,267.263 78.800,266.884 78.800 C 266.571 78.800,266.407 79.042,266.521 79.338 M288.000 82.600 C 288.000 85.711,288.109 86.400,288.600 86.400 C 289.075 86.400,289.200 85.829,289.200 83.662 C 289.200 80.794,289.826 79.600,291.331 79.600 C 291.699 79.600,292.000 79.420,292.000 79.200 C 292.000 78.575,290.740 78.731,289.940 79.454 C 289.270 80.060,289.198 80.060,288.966 79.454 C 288.364 77.886,288.000 79.072,288.000 82.600 M309.606 81.500 C 309.615 85.810,311.731 87.854,314.029 85.774 C 314.722 85.146,314.804 85.144,315.034 85.746 C 315.636 87.314,316.000 86.128,316.000 82.600 C 316.000 79.489,315.891 78.800,315.400 78.800 C 314.920 78.800,314.800 79.399,314.800 81.790 C 314.800 84.650,314.752 84.804,313.700 85.335 C 311.496 86.448,310.814 85.592,310.806 81.700 C 310.801 79.392,310.678 78.800,310.200 78.800 C 309.725 78.800,309.601 79.364,309.606 81.500 M149.209 80.300 C 150.966 82.528,149.290 86.395,146.825 85.803 C 145.380 85.455,144.800 84.516,144.800 82.524 C 144.800 79.416,147.456 78.076,149.209 80.300 M174.145 79.802 C 175.538 81.195,175.421 84.320,173.938 85.358 C 171.266 87.230,168.861 82.069,171.454 80.029 C 172.707 79.044,173.334 78.991,174.145 79.802 M184.000 80.000 C 184.985 80.985,185.107 84.036,184.198 84.945 C 181.276 87.867,177.944 83.049,180.709 79.900 C 181.528 78.968,183.013 79.013,184.000 80.000 M212.571 79.829 C 213.955 81.212,213.384 82.000,211.000 82.000 C 209.211 82.000,208.800 81.875,208.800 81.331 C 208.800 79.557,211.303 78.560,212.571 79.829 M252.964 79.724 C 254.238 80.655,254.298 83.739,253.067 84.970 C 251.822 86.215,251.601 86.231,250.254 85.171 C 247.564 83.055,250.220 77.718,252.964 79.724 M262.240 79.506 C 263.823 80.563,264.032 83.605,262.618 85.018 C 261.420 86.216,260.819 86.245,259.454 85.171 C 256.826 83.104,259.496 77.674,262.240 79.506 M284.177 80.089 C 285.291 81.680,284.993 82.000,282.400 82.000 C 279.807 82.000,279.774 81.977,280.460 80.674 C 281.369 78.946,283.178 78.662,284.177 80.089 M338.977 80.089 C 340.091 81.680,339.793 82.000,337.200 82.000 C 334.546 82.000,334.125 81.475,335.600 80.000 C 336.661 78.939,338.200 78.979,338.977 80.089 M347.902 79.700 C 349.309 81.459,348.962 82.000,346.427 82.000 C 343.805 82.000,343.506 81.683,344.623 80.089 C 345.314 79.102,347.240 78.873,347.902 79.700 M356.800 80.000 C 357.359 80.559,357.600 81.333,357.600 82.571 C 357.600 86.843,353.133 86.979,353.040 82.710 C 352.974 79.694,355.020 78.220,356.800 80.000 M165.927 83.887 C 165.655 86.223,162.398 86.659,162.065 84.404 C 161.896 83.257,162.579 82.814,164.527 82.806 C 165.953 82.800,166.045 82.871,165.927 83.887 M198.800 83.791 C 198.800 85.213,197.104 86.267,195.784 85.665 C 193.797 84.760,194.821 82.800,197.280 82.800 C 198.631 82.800,198.800 82.910,198.800 83.791 M216.600 85.200 C 216.308 85.672,216.687 86.400,217.224 86.400 C 217.431 86.400,217.600 86.040,217.600 85.600 C 217.600 84.756,217.018 84.524,216.600 85.200 M361.456 85.078 C 360.978 85.556,361.198 86.400,361.800 86.400 C 362.130 86.400,362.400 86.141,362.400 85.824 C 362.400 85.155,361.829 84.704,361.456 85.078 M292.400 85.800 C 292.400 86.130,292.670 86.400,293.000 86.400 C 293.330 86.400,293.600 86.130,293.600 85.800 C 293.600 85.470,293.330 85.200,293.000 85.200 C 292.670 85.200,292.400 85.470,292.400 85.800 " stroke="none" fill="#96002d" fill-rule="evenodd"></path><path id="path2" d="M79.799 31.106 C 79.343 31.441,77.010 34.535,74.227 38.498 C 68.211 47.065,62.942 47.728,61.523 40.097 L 61.078 37.701 59.696 39.751 C 56.745 44.129,55.214 47.496,53.587 53.189 C 51.538 60.360,51.444 60.552,50.283 59.958 C 48.059 58.821,45.984 56.233,45.190 53.606 C 43.939 49.471,43.890 49.451,41.477 52.100 C 39.139 54.668,38.989 54.717,36.844 53.622 C 34.339 52.345,26.800 43.888,26.800 42.356 C 26.800 42.190,26.297 41.696,25.682 41.259 L 24.565 40.463 24.849 42.731 C 25.005 43.979,25.148 46.750,25.166 48.890 L 25.200 52.779 24.020 53.390 C 23.371 53.725,22.571 54.000,22.243 54.000 C 21.198 54.000,21.198 54.643,22.245 56.040 C 24.222 58.679,25.625 61.945,25.714 64.117 L 25.800 66.200 24.090 67.021 L 22.380 67.842 23.814 68.526 C 25.052 69.116,29.040 71.830,30.180 72.858 C 30.509 73.154,27.448 76.569,26.811 76.615 C 26.695 76.624,26.060 76.932,25.400 77.299 L 24.200 77.968 26.724 77.984 C 28.464 77.995,29.162 78.137,28.974 78.443 C 28.787 78.745,28.987 78.795,29.600 78.600 C 30.213 78.405,30.413 78.455,30.226 78.757 C 29.937 79.225,30.259 79.310,32.200 79.278 C 37.025 79.198,38.207 79.078,38.580 78.632 C 38.936 78.205,41.139 77.778,49.400 76.533 C 50.060 76.434,51.614 76.367,52.854 76.385 C 54.524 76.409,55.168 76.260,55.341 75.809 C 55.490 75.420,56.094 75.200,57.011 75.200 C 57.867 75.200,58.347 75.362,58.200 75.600 C 57.838 76.185,58.496 76.088,59.458 75.414 C 59.919 75.092,60.437 74.957,60.612 75.114 C 60.786 75.271,60.790 75.161,60.622 74.869 C 60.433 74.543,60.639 74.037,61.157 73.554 C 61.903 72.860,62.197 72.048,62.047 71.100 C 62.021 70.935,62.191 70.800,62.424 70.800 C 62.657 70.800,62.736 70.620,62.600 70.400 C 62.464 70.180,62.573 70.000,62.843 70.000 C 63.113 70.000,63.222 69.889,63.086 69.752 C 62.714 69.381,63.931 68.310,64.397 68.598 C 64.898 68.908,64.930 70.000,64.437 70.000 C 64.238 70.000,64.176 70.388,64.300 70.863 C 64.465 71.491,64.388 71.640,64.020 71.412 C 63.643 71.180,63.587 71.329,63.800 72.000 C 64.014 72.674,63.958 72.821,63.575 72.584 C 63.216 72.363,63.137 72.459,63.310 72.909 C 63.445 73.260,63.375 73.608,63.155 73.682 C 62.933 73.756,62.884 74.154,63.045 74.572 C 63.315 75.277,63.358 75.267,63.671 74.419 C 63.947 73.675,64.115 73.597,64.593 73.994 C 65.056 74.379,65.298 74.359,65.755 73.902 C 66.144 73.513,67.679 73.243,70.462 73.073 C 72.734 72.935,74.654 72.637,74.730 72.411 C 74.805 72.185,75.437 71.997,76.133 71.994 C 76.830 71.991,78.519 71.724,79.888 71.402 C 81.256 71.079,82.907 70.921,83.557 71.051 C 85.760 71.492,86.703 70.023,84.977 68.840 C 83.596 67.894,83.115 66.347,84.027 65.783 C 84.262 65.638,84.358 65.267,84.240 64.960 C 84.122 64.652,84.210 64.400,84.436 64.400 C 84.662 64.400,84.736 64.220,84.600 64.000 C 84.464 63.780,84.510 63.600,84.702 63.600 C 84.895 63.600,85.345 62.984,85.704 62.232 C 86.063 61.479,87.233 59.634,88.304 58.132 C 92.292 52.539,92.568 51.875,92.007 49.233 C 91.332 46.053,91.229 45.933,89.582 46.405 C 82.390 48.468,78.878 43.924,79.917 33.900 C 80.093 32.195,80.229 30.803,80.219 30.806 C 80.209 30.809,80.020 30.944,79.799 31.106 M153.375 75.320 C 153.265 75.606,153.232 78.261,153.300 81.220 L 153.425 86.600 153.513 80.933 C 153.576 76.842,153.739 75.211,154.100 75.065 C 154.492 74.907,154.489 74.856,154.087 74.832 C 153.806 74.814,153.485 75.034,153.375 75.320 M357.888 75.086 C 358.221 75.322,358.418 77.209,358.506 81.016 L 358.636 86.600 358.618 80.833 C 358.603 76.056,358.497 75.038,358.000 74.902 C 357.568 74.785,357.537 74.836,357.888 75.086 M226.557 81.200 C 226.557 84.170,226.620 85.385,226.697 83.900 C 226.774 82.415,226.774 79.985,226.697 78.500 C 226.620 77.015,226.557 78.230,226.557 81.200 M230.000 76.400 L 227.800 76.670 229.876 76.735 C 231.018 76.771,232.064 76.620,232.200 76.400 C 232.336 76.180,232.392 76.029,232.324 76.065 C 232.256 76.101,231.210 76.252,230.000 76.400 M56.975 79.700 L 55.800 81.000 57.100 79.825 C 57.815 79.179,58.400 78.594,58.400 78.525 C 58.400 78.216,58.070 78.488,56.975 79.700 M188.171 78.932 C 188.059 79.224,188.021 81.069,188.087 83.032 L 188.207 86.600 188.403 82.499 C 188.598 78.432,188.564 77.907,188.171 78.932 M234.571 78.932 C 234.459 79.224,234.421 81.069,234.487 83.032 L 234.607 86.600 234.803 82.499 C 234.998 78.432,234.964 77.907,234.571 78.932 M235.623 79.828 C 235.880 80.138,236.262 80.285,236.472 80.156 C 236.938 79.868,236.592 79.475,235.766 79.354 C 235.284 79.283,235.254 79.383,235.623 79.828 M31.836 80.342 C 31.720 80.530,32.114 81.115,32.712 81.642 L 33.800 82.600 32.896 81.570 C 32.399 81.004,32.114 80.419,32.263 80.270 C 32.412 80.122,32.424 80.000,32.290 80.000 C 32.157 80.000,31.952 80.154,31.836 80.342 M253.701 82.600 C 253.705 83.480,253.787 83.793,253.883 83.295 C 253.979 82.798,253.975 82.078,253.875 81.695 C 253.775 81.313,253.696 81.720,253.701 82.600 M264.493 82.400 C 264.493 83.170,264.575 83.485,264.676 83.100 C 264.776 82.715,264.776 82.085,264.676 81.700 C 264.575 81.315,264.493 81.630,264.493 82.400 M210.300 82.689 C 211.015 82.778,212.185 82.778,212.900 82.689 C 213.615 82.601,213.030 82.528,211.600 82.528 C 210.170 82.528,209.585 82.601,210.300 82.689 M281.491 82.689 C 282.201 82.777,283.461 82.779,284.291 82.692 C 285.121 82.605,284.540 82.533,283.000 82.531 C 281.460 82.529,280.781 82.600,281.491 82.689 M336.291 82.689 C 337.001 82.777,338.261 82.779,339.091 82.692 C 339.921 82.605,339.340 82.533,337.800 82.531 C 336.260 82.529,335.581 82.600,336.291 82.689 M345.491 82.689 C 346.201 82.777,347.461 82.779,348.291 82.692 C 349.121 82.605,348.540 82.533,347.000 82.531 C 345.460 82.529,344.781 82.600,345.491 82.689 M165.654 83.676 C 165.625 84.268,165.417 84.866,165.193 85.004 C 164.691 85.315,165.074 86.011,165.724 85.968 C 166.051 85.947,166.038 85.872,165.683 85.730 C 165.297 85.575,165.280 85.386,165.614 84.983 C 165.860 84.687,165.982 84.029,165.885 83.522 C 165.726 82.687,165.704 82.702,165.654 83.676 M314.369 84.500 C 314.116 85.329,314.148 85.956,314.435 85.778 C 314.636 85.654,314.800 85.773,314.800 86.043 C 314.800 86.313,314.916 86.418,315.057 86.276 C 315.198 86.135,315.110 85.773,314.860 85.473 C 314.611 85.172,314.525 84.808,314.670 84.663 C 314.815 84.518,314.813 84.400,314.667 84.400 C 314.520 84.400,314.386 84.445,314.369 84.500 M67.100 86.695 C 68.255 86.776,70.145 86.776,71.300 86.695 C 72.455 86.614,71.510 86.548,69.200 86.548 C 66.890 86.548,65.945 86.614,67.100 86.695 M302.900 86.676 C 303.285 86.776,303.915 86.776,304.300 86.676 C 304.685 86.575,304.370 86.493,303.600 86.493 C 302.830 86.493,302.515 86.575,302.900 86.676 M48.581 90.100 L 47.000 91.800 48.700 90.219 C 50.281 88.748,50.584 88.400,50.281 88.400 C 50.216 88.400,49.451 89.165,48.581 90.100 " stroke="none" fill="#bb1d2b" fill-rule="evenodd"></path><path id="path3" d="M80.136 30.490 C 79.928 30.772,79.891 31.627,80.054 32.400 L 80.350 33.800 80.256 32.306 C 80.204 31.485,80.351 30.744,80.581 30.661 C 80.811 30.578,80.891 30.391,80.757 30.245 C 80.623 30.100,80.344 30.210,80.136 30.490 M79.714 37.400 C 79.717 38.500,79.795 38.903,79.887 38.295 C 79.979 37.686,79.977 36.786,79.882 36.295 C 79.787 35.803,79.711 36.300,79.714 37.400 M24.531 41.700 C 24.512 43.028,24.544 43.114,24.679 42.092 C 24.794 41.219,25.009 40.879,25.326 41.069 C 25.599 41.233,25.568 41.067,25.251 40.677 C 24.531 39.789,24.560 39.746,24.531 41.700 M71.775 41.300 L 70.600 42.600 71.900 41.425 C 72.615 40.779,73.200 40.194,73.200 40.125 C 73.200 39.816,72.870 40.088,71.775 41.300 M25.693 64.800 C 25.693 65.570,25.775 65.885,25.876 65.500 C 25.976 65.115,25.976 64.485,25.876 64.100 C 25.775 63.715,25.693 64.030,25.693 64.800 M154.488 80.467 C 154.424 84.717,154.262 86.389,153.900 86.535 C 153.508 86.693,153.511 86.744,153.913 86.768 C 154.740 86.819,154.830 86.062,154.700 80.181 L 154.575 74.600 154.488 80.467 M169.288 80.476 C 169.197 86.557,169.439 87.532,170.724 86.247 C 171.143 85.828,171.200 85.600,170.886 85.600 C 170.619 85.600,170.400 85.780,170.400 86.000 C 170.400 86.220,170.225 86.400,170.011 86.400 C 169.781 86.400,169.571 83.975,169.499 80.500 L 169.377 74.600 169.288 80.476 M170.446 76.876 C 170.421 78.128,170.535 79.236,170.700 79.338 C 170.865 79.440,170.946 78.686,170.880 77.662 C 170.693 74.741,170.497 74.386,170.446 76.876 M227.714 78.600 C 227.717 79.700,227.795 80.103,227.887 79.495 C 227.979 78.886,227.977 77.986,227.882 77.495 C 227.787 77.003,227.711 77.500,227.714 78.600 M204.800 78.677 C 205.350 78.789,205.949 79.088,206.130 79.340 C 206.351 79.648,206.407 79.601,206.300 79.200 C 206.209 78.862,205.629 78.572,204.969 78.537 C 203.962 78.482,203.939 78.501,204.800 78.677 M248.159 84.000 C 248.159 87.190,248.221 88.495,248.297 86.900 C 248.373 85.305,248.373 82.695,248.297 81.100 C 248.221 79.505,248.159 80.810,248.159 84.000 M133.709 81.200 C 133.709 82.190,133.787 82.595,133.882 82.100 C 133.978 81.605,133.978 80.795,133.882 80.300 C 133.787 79.805,133.709 80.210,133.709 81.200 M199.679 83.067 C 199.627 85.242,199.433 86.401,199.100 86.535 C 198.708 86.693,198.711 86.744,199.113 86.768 C 199.891 86.816,200.051 86.003,199.898 82.763 L 199.759 79.800 199.679 83.067 M57.178 82.300 L 55.800 83.800 57.300 82.422 C 58.696 81.138,58.984 80.800,58.678 80.800 C 58.612 80.800,57.937 81.475,57.178 82.300 M229.800 81.163 L 227.800 81.400 227.800 83.400 L 227.800 85.400 230.000 85.438 L 232.200 85.476 230.100 85.317 L 228.000 85.158 228.000 83.379 L 228.000 81.600 229.776 81.600 C 230.753 81.600,231.664 81.420,231.800 81.200 C 231.936 80.980,231.992 80.828,231.924 80.863 C 231.856 80.897,230.900 81.032,229.800 81.163 M239.370 83.600 C 239.412 87.781,240.584 88.058,240.630 83.898 L 240.659 81.197 240.511 83.798 C 240.313 87.293,239.671 87.106,239.487 83.500 L 239.339 80.600 239.370 83.600 M254.909 82.400 C 254.909 83.390,254.987 83.795,255.082 83.300 C 255.178 82.805,255.178 81.995,255.082 81.500 C 254.987 81.005,254.909 81.410,254.909 82.400 M150.893 82.400 C 150.893 83.170,150.975 83.485,151.076 83.100 C 151.176 82.715,151.176 82.085,151.076 81.700 C 150.975 81.315,150.893 81.630,150.893 82.400 M170.501 82.600 C 170.505 83.480,170.587 83.793,170.683 83.295 C 170.779 82.798,170.775 82.078,170.675 81.695 C 170.575 81.313,170.496 81.720,170.501 82.600 M178.501 82.600 C 178.505 83.480,178.587 83.793,178.683 83.295 C 178.779 82.798,178.775 82.078,178.675 81.695 C 178.575 81.313,178.496 81.720,178.501 82.600 M184.501 82.600 C 184.505 83.480,184.587 83.793,184.683 83.295 C 184.779 82.798,184.775 82.078,184.675 81.695 C 184.575 81.313,184.496 81.720,184.501 82.600 M189.276 83.667 C 189.227 85.364,189.018 86.407,188.700 86.535 C 188.308 86.693,188.311 86.744,188.713 86.768 C 189.469 86.815,189.660 85.984,189.497 83.355 L 189.351 81.000 189.276 83.667 M249.301 82.600 C 249.305 83.480,249.387 83.793,249.483 83.295 C 249.579 82.798,249.575 82.078,249.475 81.695 C 249.375 81.313,249.296 81.720,249.301 82.600 M258.501 82.600 C 258.505 83.480,258.587 83.793,258.683 83.295 C 258.779 82.798,258.775 82.078,258.675 81.695 C 258.575 81.313,258.496 81.720,258.501 82.600 M263.293 82.400 C 263.293 83.170,263.375 83.485,263.476 83.100 C 263.576 82.715,263.576 82.085,263.476 81.700 C 263.375 81.315,263.293 81.630,263.293 82.400 M278.901 82.600 C 278.905 83.480,278.987 83.793,279.083 83.295 C 279.179 82.798,279.175 82.078,279.075 81.695 C 278.975 81.313,278.896 81.720,278.901 82.600 M137.700 85.476 C 138.085 85.576,138.715 85.576,139.100 85.476 C 139.485 85.375,139.170 85.293,138.400 85.293 C 137.630 85.293,137.315 85.375,137.700 85.476 M249.361 86.158 C 249.243 86.465,249.218 87.410,249.306 88.258 C 249.456 89.705,249.470 89.681,249.533 87.876 C 249.580 86.537,249.740 86.039,250.062 86.238 C 250.348 86.415,250.415 86.348,250.238 86.062 C 249.862 85.453,249.621 85.479,249.361 86.158 M227.891 86.689 C 228.601 86.777,229.861 86.779,230.691 86.692 C 231.521 86.605,230.940 86.533,229.400 86.531 C 227.860 86.529,227.181 86.600,227.891 86.689 M46.480 92.080 C 45.797 92.763,45.886 93.205,46.700 93.168 C 47.145 93.148,47.212 93.061,46.883 92.930 C 46.487 92.770,46.475 92.592,46.832 92.161 C 47.401 91.476,47.144 91.416,46.480 92.080 " stroke="none" fill="#ba5674" fill-rule="evenodd"></path><path id="path4" d="M25.600 41.000 C 26.346 41.770,27.047 42.400,27.157 42.400 C 27.267 42.400,26.746 41.770,26.000 41.000 C 25.254 40.230,24.553 39.600,24.443 39.600 C 24.333 39.600,24.854 40.230,25.600 41.000 M24.931 49.000 C 24.933 50.540,25.005 51.121,25.092 50.291 C 25.179 49.461,25.177 48.201,25.089 47.491 C 25.000 46.781,24.929 47.460,24.931 49.000 M41.178 51.900 L 39.800 53.400 41.300 52.022 C 42.125 51.263,42.800 50.588,42.800 50.522 C 42.800 50.216,42.462 50.504,41.178 51.900 M156.960 80.600 C 156.961 83.900,157.022 85.197,157.098 83.482 C 157.173 81.767,157.172 79.067,157.097 77.482 C 157.021 75.897,156.959 77.300,156.960 80.600 M357.309 76.400 C 357.309 77.390,357.387 77.795,357.482 77.300 C 357.578 76.805,357.578 75.995,357.482 75.500 C 357.387 75.005,357.309 75.410,357.309 76.400 M158.559 80.800 C 158.559 83.990,158.621 85.295,158.697 83.700 C 158.773 82.105,158.773 79.495,158.697 77.900 C 158.621 76.305,158.559 77.610,158.559 80.800 M358.959 80.800 C 358.959 83.990,359.021 85.295,359.097 83.700 C 359.173 82.105,359.173 79.495,359.097 77.900 C 359.021 76.305,358.959 77.610,358.959 80.800 M226.072 81.076 C 226.032 83.978,226.135 86.437,226.300 86.540 C 226.465 86.642,226.552 85.078,226.493 83.063 C 226.301 76.447,226.145 75.713,226.072 81.076 M228.900 77.087 C 229.505 77.178,230.495 77.178,231.100 77.087 C 231.705 76.995,231.210 76.920,230.000 76.920 C 228.790 76.920,228.295 76.995,228.900 77.087 M25.905 78.683 C 26.402 78.779,27.122 78.775,27.505 78.675 C 27.887 78.575,27.480 78.496,26.600 78.501 C 25.720 78.505,25.407 78.587,25.905 78.683 M310.931 81.000 C 310.933 82.540,311.005 83.121,311.092 82.291 C 311.179 81.461,311.177 80.201,311.089 79.491 C 311.000 78.781,310.929 79.460,310.931 81.000 M316.148 82.400 C 316.148 84.710,316.214 85.655,316.295 84.500 C 316.376 83.345,316.376 81.455,316.295 80.300 C 316.214 79.145,316.148 80.090,316.148 82.400 M234.146 82.600 C 234.147 84.800,234.214 85.649,234.295 84.487 C 234.376 83.324,234.376 81.524,234.293 80.487 C 234.211 79.449,234.145 80.400,234.146 82.600 M287.748 82.800 C 287.748 85.110,287.814 86.055,287.895 84.900 C 287.976 83.745,287.976 81.855,287.895 80.700 C 287.814 79.545,287.748 80.490,287.748 82.800 M309.331 81.400 C 309.333 82.940,309.405 83.521,309.492 82.691 C 309.579 81.861,309.577 80.601,309.489 79.891 C 309.400 79.181,309.329 79.860,309.331 81.400 M314.531 81.400 C 314.533 82.940,314.605 83.521,314.692 82.691 C 314.779 81.861,314.777 80.601,314.689 79.891 C 314.600 79.181,314.529 79.860,314.531 81.400 M56.000 81.000 C 55.028 81.990,54.323 82.800,54.433 82.800 C 54.543 82.800,55.428 81.990,56.400 81.000 C 57.372 80.010,58.077 79.200,57.967 79.200 C 57.857 79.200,56.972 80.010,56.000 81.000 M201.879 79.880 C 202.142 80.067,202.427 81.386,202.512 82.810 L 202.666 85.400 202.633 82.632 C 202.608 80.530,202.456 79.825,202.000 79.701 C 201.578 79.587,201.542 79.640,201.879 79.880 M204.165 80.148 C 204.049 80.449,204.021 81.664,204.103 82.848 L 204.252 85.000 204.326 82.528 C 204.392 80.310,204.493 80.038,205.300 79.882 L 206.200 79.709 205.287 79.654 C 204.786 79.625,204.280 79.846,204.165 80.148 M228.400 80.223 C 229.886 80.547,231.926 80.603,231.748 80.316 C 231.641 80.142,230.708 80.021,229.676 80.046 C 228.644 80.072,228.070 80.152,228.400 80.223 M165.200 80.906 C 165.200 81.257,164.795 81.622,164.300 81.718 L 163.400 81.891 164.313 81.946 C 165.192 81.998,165.962 81.029,165.449 80.516 C 165.312 80.379,165.200 80.554,165.200 80.906 M166.934 83.200 C 166.934 84.850,167.005 85.525,167.091 84.700 C 167.178 83.875,167.178 82.525,167.091 81.700 C 167.005 80.875,166.934 81.550,166.934 83.200 M244.134 83.600 C 244.134 85.250,244.205 85.925,244.291 85.100 C 244.378 84.275,244.378 82.925,244.291 82.100 C 244.205 81.275,244.134 81.950,244.134 83.600 M348.000 81.133 C 348.000 81.414,347.241 81.628,346.100 81.670 L 344.200 81.740 345.954 81.896 C 347.620 82.043,348.864 81.531,348.273 80.940 C 348.123 80.790,348.000 80.877,348.000 81.133 M207.301 82.600 C 207.305 83.480,207.387 83.793,207.483 83.295 C 207.579 82.798,207.575 82.078,207.475 81.695 C 207.375 81.313,207.296 81.720,207.301 82.600 M209.062 81.700 C 209.164 81.865,210.036 82.000,211.000 82.000 C 211.964 82.000,212.836 81.865,212.938 81.700 C 213.040 81.535,212.168 81.400,211.000 81.400 C 209.832 81.400,208.960 81.535,209.062 81.700 M235.731 83.800 C 235.733 85.340,235.805 85.921,235.892 85.091 C 235.979 84.261,235.977 83.001,235.889 82.291 C 235.800 81.581,235.729 82.260,235.731 83.800 M245.731 83.800 C 245.733 85.340,245.805 85.921,245.892 85.091 C 245.979 84.261,245.977 83.001,245.889 82.291 C 245.800 81.581,245.729 82.260,245.731 83.800 M289.331 83.800 C 289.333 85.340,289.405 85.921,289.492 85.091 C 289.579 84.261,289.577 83.001,289.489 82.291 C 289.400 81.581,289.329 82.260,289.331 83.800 M357.301 82.600 C 357.305 83.480,357.387 83.793,357.483 83.295 C 357.579 82.798,357.575 82.078,357.475 81.695 C 357.375 81.313,357.296 81.720,357.301 82.600 M281.305 81.887 C 281.914 81.979,282.814 81.977,283.305 81.882 C 283.797 81.787,283.300 81.711,282.200 81.714 C 281.100 81.717,280.697 81.795,281.305 81.887 M336.505 81.887 C 337.114 81.979,338.014 81.977,338.505 81.882 C 338.997 81.787,338.500 81.711,337.400 81.714 C 336.300 81.717,335.897 81.795,336.505 81.887 M164.141 83.090 C 165.097 83.233,165.252 83.416,165.099 84.218 C 164.998 84.745,165.070 85.081,165.258 84.964 C 166.280 84.332,165.583 82.801,164.300 82.860 C 163.032 82.918,163.028 82.924,164.141 83.090 M73.500 87.093 C 74.435 87.177,75.965 87.177,76.900 87.093 C 77.835 87.009,77.070 86.940,75.200 86.940 C 73.330 86.940,72.565 87.009,73.500 87.093 M48.175 90.100 L 47.000 91.400 48.300 90.225 C 49.015 89.579,49.600 88.994,49.600 88.925 C 49.600 88.616,49.270 88.888,48.175 90.100 " stroke="none" fill="#dbabb9" fill-rule="evenodd"></path><path id="path5" d="M322.800 50.600 L 322.800 65.200 324.400 65.200 L 326.000 65.200 326.000 50.600 L 326.000 36.000 324.400 36.000 L 322.800 36.000 322.800 50.600 M114.400 51.600 L 114.400 65.200 116.100 65.201 L 117.800 65.201 117.677 59.921 C 117.494 52.104,116.856 52.800,124.208 52.800 L 130.400 52.800 130.400 51.610 L 130.400 50.420 124.100 50.310 L 117.800 50.200 117.800 45.400 L 117.800 40.600 125.300 40.491 L 132.800 40.382 132.800 39.191 L 132.800 38.000 123.600 38.000 L 114.400 38.000 114.400 51.600 M213.600 51.600 L 213.600 65.200 215.233 65.200 L 216.867 65.200 216.733 54.200 C 216.612 44.190,216.721 42.229,217.317 43.700 C 217.428 43.975,218.911 47.620,220.613 51.800 C 222.314 55.980,224.182 60.660,224.765 62.200 C 226.683 67.269,228.059 66.471,230.975 58.600 C 232.858 53.516,237.124 43.425,237.435 43.322 C 237.651 43.249,237.742 47.657,237.659 54.154 L 237.517 65.108 239.159 65.265 L 240.800 65.421 240.800 51.711 L 240.800 38.000 238.419 38.000 C 236.073 38.000,236.032 38.019,235.675 39.300 C 235.476 40.015,234.733 42.040,234.024 43.800 C 233.314 45.560,232.097 48.620,231.318 50.600 C 228.420 57.972,227.394 60.390,227.161 60.395 C 226.881 60.401,226.196 58.836,224.184 53.600 C 223.381 51.510,222.111 48.329,221.362 46.531 C 220.613 44.732,220.000 43.089,220.000 42.879 C 220.000 42.669,219.537 41.485,218.971 40.248 L 217.941 38.000 215.771 38.000 L 213.600 38.000 213.600 51.600 M341.600 51.600 L 341.600 65.200 343.189 65.200 L 344.779 65.200 344.889 59.300 L 345.000 53.400 349.294 53.287 C 355.979 53.110,357.130 54.041,357.426 59.865 C 357.702 65.276,357.665 65.200,360.030 65.200 C 362.033 65.200,362.041 65.194,361.423 64.311 C 360.993 63.697,360.800 62.489,360.800 60.408 C 360.800 55.940,359.264 52.400,357.325 52.400 C 356.503 52.400,356.676 52.106,358.564 50.293 C 362.537 46.481,361.088 40.148,355.890 38.604 C 354.461 38.180,352.029 38.000,347.727 38.000 L 341.600 38.000 341.600 51.600 M268.800 42.600 L 268.800 45.200 267.200 45.200 C 264.853 45.200,264.763 47.082,267.100 47.276 L 268.600 47.400 268.800 55.000 C 269.052 64.584,269.540 65.600,273.889 65.600 L 276.000 65.600 276.000 64.192 C 276.000 62.921,275.910 62.807,275.075 63.017 C 272.613 63.635,272.200 62.416,272.200 54.536 L 272.200 47.400 274.100 47.278 C 275.803 47.169,276.000 47.057,276.000 46.200 C 276.000 45.343,275.803 45.231,274.100 45.122 L 272.200 45.000 272.081 42.500 L 271.962 40.000 270.381 40.000 L 268.800 40.000 268.800 42.600 M354.721 40.959 C 356.787 42.027,357.387 43.074,357.387 45.609 C 357.387 49.715,355.333 50.938,348.800 50.724 L 345.000 50.600 344.886 46.024 C 344.824 43.508,344.863 41.213,344.974 40.924 C 345.264 40.168,353.247 40.197,354.721 40.959 M137.382 45.944 C 135.493 47.047,134.400 48.467,134.400 49.819 C 134.400 50.790,137.482 50.601,137.797 49.610 C 139.278 44.943,146.400 47.087,146.400 52.202 L 146.400 53.484 142.449 53.701 C 137.212 53.990,135.082 54.893,133.997 57.283 C 131.981 61.725,134.529 65.602,139.462 65.598 C 141.814 65.596,142.376 65.367,145.165 63.273 C 146.353 62.381,146.400 62.376,146.400 63.140 C 146.400 64.730,146.844 65.200,148.343 65.200 L 149.800 65.201 149.690 57.700 C 149.562 49.025,149.215 47.553,146.930 46.000 C 144.565 44.393,140.081 44.366,137.382 45.944 M160.306 46.400 C 158.367 48.339,158.400 48.336,158.400 46.600 C 158.400 45.233,158.362 45.200,156.800 45.200 L 155.200 45.200 155.200 55.200 L 155.200 65.200 156.800 65.200 L 158.400 65.200 158.400 58.180 C 158.400 49.204,159.187 47.600,163.587 47.600 C 164.707 47.600,164.800 47.492,164.800 46.200 C 164.800 44.054,162.552 44.154,160.306 46.400 M175.000 45.429 C 174.340 45.772,173.413 46.416,172.939 46.860 L 172.078 47.666 171.807 46.433 C 171.569 45.349,171.371 45.200,170.168 45.200 L 168.800 45.200 168.800 55.200 L 168.800 65.200 170.400 65.200 L 172.000 65.200 172.000 57.606 L 172.000 50.013 173.100 48.782 C 175.124 46.516,178.866 46.777,180.398 49.290 C 181.119 50.473,181.197 51.310,181.199 57.900 L 181.200 65.200 182.800 65.200 L 184.400 65.200 184.402 58.900 C 184.406 49.091,185.976 46.250,190.735 47.443 C 193.412 48.113,193.800 49.439,193.800 57.899 L 193.800 65.198 195.547 65.199 L 197.295 65.200 197.133 57.500 C 196.993 50.867,196.862 49.579,196.185 48.205 C 194.088 43.947,188.178 43.570,184.978 47.492 L 184.157 48.499 183.457 47.430 C 181.843 44.968,177.749 43.999,175.000 45.429 M306.400 45.327 C 303.807 46.682,302.000 48.667,302.000 50.160 C 302.000 51.019,305.253 50.321,305.686 49.370 C 307.496 45.398,313.862 46.945,314.296 51.463 L 314.490 53.479 310.494 53.699 C 303.007 54.111,300.177 56.717,301.576 61.910 C 302.777 66.372,310.807 66.996,313.384 62.826 C 313.880 62.024,314.349 62.400,314.475 63.700 C 314.591 64.906,314.716 65.009,316.200 65.119 L 317.800 65.237 317.695 58.119 C 317.547 48.065,317.318 47.293,313.978 45.589 C 312.158 44.660,307.954 44.515,306.400 45.327 M370.097 45.460 C 363.429 48.748,362.822 60.441,369.113 64.431 C 373.096 66.957,382.392 65.130,380.276 62.237 C 379.766 61.539,379.682 61.537,378.406 62.197 C 373.549 64.709,368.735 62.417,368.329 57.400 L 368.200 55.800 374.900 55.690 L 381.600 55.581 381.600 53.236 C 381.600 46.923,375.498 42.798,370.097 45.460 M246.000 52.813 C 246.000 61.358,246.195 62.235,248.554 64.306 C 251.107 66.547,256.547 65.915,257.995 63.210 C 258.571 62.133,259.200 62.535,259.200 63.982 C 259.200 65.013,259.345 65.130,260.800 65.269 L 262.400 65.421 262.400 55.311 L 262.400 45.200 260.700 45.200 L 259.000 45.199 259.126 52.303 C 259.275 60.745,258.948 61.680,255.470 62.760 C 250.310 64.362,249.214 62.601,249.206 52.700 L 249.200 45.200 247.600 45.200 L 246.000 45.200 246.000 52.813 M280.058 53.100 C 280.186 60.198,280.283 61.142,281.022 62.399 C 283.314 66.301,288.809 66.821,291.974 63.434 C 293.021 62.313,293.582 62.598,293.594 64.256 C 293.599 64.935,293.889 65.146,295.000 65.276 L 296.400 65.439 296.400 55.320 L 296.400 45.200 294.800 45.200 L 293.200 45.200 293.200 52.640 L 293.200 60.080 291.876 61.404 C 289.555 63.725,285.664 63.691,284.121 61.336 C 283.506 60.397,283.379 59.129,283.257 52.718 L 283.114 45.200 281.515 45.200 L 279.917 45.200 280.058 53.100 M376.154 48.035 C 378.361 49.772,379.168 52.993,377.500 53.409 C 374.930 54.051,368.603 53.424,368.474 52.515 C 367.952 48.847,373.254 45.754,376.154 48.035 M146.319 57.622 C 146.578 61.599,140.686 64.579,137.564 62.052 C 134.347 59.447,137.953 55.527,143.400 55.707 L 146.200 55.800 146.319 57.622 M314.319 57.622 C 314.580 61.627,307.976 64.847,305.382 61.980 C 302.696 59.012,306.037 55.530,311.400 55.707 L 314.200 55.800 314.319 57.622 " stroke="none" fill="#46545f" fill-rule="evenodd"></path><path id="path6" d="M324.397 35.884 L 326.000 36.046 326.000 50.600 L 326.000 65.154 324.300 65.307 L 322.600 65.460 324.505 65.530 L 326.410 65.600 326.305 50.700 L 326.200 35.800 324.497 35.761 L 322.794 35.722 324.397 35.884 M272.166 42.400 L 272.200 45.000 274.100 45.122 C 275.803 45.231,276.000 45.343,276.000 46.200 C 276.000 47.057,275.803 47.169,274.100 47.278 L 272.200 47.400 272.185 54.200 L 272.169 61.000 272.294 54.322 L 272.419 47.643 274.310 47.522 C 277.231 47.334,277.239 45.067,274.319 44.879 L 272.437 44.758 272.285 42.279 L 272.133 39.800 272.166 42.400 M117.753 45.400 C 117.753 48.040,117.818 49.068,117.897 47.684 C 117.975 46.301,117.974 44.141,117.895 42.884 C 117.816 41.628,117.752 42.760,117.753 45.400 M344.870 45.476 C 344.831 48.158,344.935 50.437,345.100 50.540 C 345.265 50.642,345.352 49.168,345.293 47.263 C 345.104 41.154,344.942 40.468,344.870 45.476 M216.400 44.200 C 216.400 44.750,216.469 45.200,216.553 45.200 C 216.638 45.200,216.793 44.750,216.898 44.200 C 217.003 43.650,216.934 43.200,216.745 43.200 C 216.555 43.200,216.400 43.650,216.400 44.200 M237.701 44.600 C 237.705 45.480,237.787 45.793,237.883 45.295 C 237.979 44.798,237.975 44.078,237.875 43.695 C 237.775 43.313,237.696 43.720,237.701 44.600 M141.300 44.676 C 141.685 44.776,142.315 44.776,142.700 44.676 C 143.085 44.575,142.770 44.493,142.000 44.493 C 141.230 44.493,140.915 44.575,141.300 44.676 M163.875 44.659 C 164.357 44.764,164.842 45.153,164.952 45.525 C 165.098 46.011,165.131 45.976,165.073 45.400 C 165.018 44.857,164.672 44.579,163.996 44.534 C 163.161 44.480,163.142 44.500,163.875 44.659 M309.300 44.676 C 309.685 44.776,310.315 44.776,310.700 44.676 C 311.085 44.575,310.770 44.493,310.000 44.493 C 309.230 44.493,308.915 44.575,309.300 44.676 M357.293 45.600 C 357.293 46.370,357.375 46.685,357.476 46.300 C 357.576 45.915,357.576 45.285,357.476 44.900 C 357.375 44.515,357.293 44.830,357.293 45.600 M155.905 45.083 C 156.402 45.179,157.122 45.175,157.505 45.075 C 157.887 44.975,157.480 44.896,156.600 44.901 C 155.720 44.905,155.407 44.987,155.905 45.083 M170.075 45.075 C 170.900 45.170,171.631 45.503,171.734 45.830 C 171.852 46.204,171.896 46.160,171.856 45.708 C 171.808 45.168,171.413 44.989,170.197 44.952 L 168.600 44.905 170.075 45.075 M245.778 45.314 C 245.669 45.597,245.634 48.972,245.700 52.814 L 245.820 59.800 245.910 52.523 L 246.000 45.246 247.700 45.093 L 249.400 44.940 247.687 44.870 C 246.606 44.826,245.902 44.990,245.778 45.314 M259.705 45.087 C 260.314 45.179,261.214 45.177,261.705 45.082 C 262.197 44.987,261.700 44.911,260.600 44.914 C 259.500 44.917,259.097 44.995,259.705 45.087 M266.300 45.082 C 266.795 45.178,267.605 45.178,268.100 45.082 C 268.595 44.987,268.190 44.909,267.200 44.909 C 266.210 44.909,265.805 44.987,266.300 45.082 M281.587 45.083 L 283.181 45.245 283.306 51.923 L 283.431 58.600 283.415 51.800 L 283.400 45.000 281.697 44.961 L 279.994 44.922 281.587 45.083 M293.900 45.082 C 294.395 45.178,295.205 45.178,295.700 45.082 C 296.195 44.987,295.790 44.909,294.800 44.909 C 293.810 44.909,293.405 44.987,293.900 45.082 M258.963 53.200 C 258.963 56.830,259.023 58.315,259.098 56.500 C 259.172 54.685,259.172 51.715,259.098 49.900 C 259.023 48.085,258.963 49.570,258.963 53.200 M175.905 47.483 C 176.402 47.579,177.122 47.575,177.505 47.475 C 177.887 47.375,177.480 47.296,176.600 47.301 C 175.720 47.305,175.407 47.387,175.905 47.483 M188.705 47.483 C 189.202 47.579,189.922 47.575,190.305 47.475 C 190.687 47.375,190.280 47.296,189.400 47.301 C 188.520 47.305,188.207 47.387,188.705 47.483 M266.305 47.483 C 266.802 47.579,267.522 47.575,267.905 47.475 C 268.287 47.375,267.880 47.296,267.000 47.301 C 266.120 47.305,265.807 47.387,266.305 47.483 M162.705 47.883 C 163.202 47.979,163.922 47.975,164.305 47.875 C 164.687 47.775,164.280 47.696,163.400 47.701 C 162.520 47.705,162.207 47.787,162.705 47.883 M130.454 51.490 L 130.400 52.780 124.100 52.901 L 117.800 53.022 124.113 53.111 C 130.895 53.207,131.072 53.153,130.686 51.129 C 130.550 50.416,130.496 50.500,130.454 51.490 M314.109 52.000 C 314.109 52.990,314.187 53.395,314.282 52.900 C 314.378 52.405,314.378 51.595,314.282 51.100 C 314.187 50.605,314.109 51.010,314.109 52.000 M158.400 57.977 L 158.400 65.154 156.700 65.307 L 155.000 65.460 156.900 65.530 L 158.800 65.600 158.800 58.200 C 158.800 54.130,158.710 50.800,158.600 50.800 C 158.490 50.800,158.400 54.030,158.400 57.977 M378.093 52.000 C 378.093 52.770,378.175 53.085,378.276 52.700 C 378.376 52.315,378.376 51.685,378.276 51.300 C 378.175 50.915,378.093 51.230,378.093 52.000 M184.400 58.577 L 184.400 65.154 182.700 65.307 L 181.000 65.460 182.900 65.530 L 184.800 65.600 184.800 58.800 C 184.800 55.060,184.710 52.000,184.600 52.000 C 184.490 52.000,184.400 54.960,184.400 58.577 M193.760 58.600 C 193.761 61.900,193.822 63.197,193.898 61.482 C 193.973 59.767,193.972 57.067,193.897 55.482 C 193.821 53.897,193.759 55.300,193.760 58.600 M237.384 59.300 L 237.400 65.400 238.903 65.442 L 240.407 65.484 239.014 65.318 L 237.621 65.153 237.494 59.176 L 237.368 53.199 237.384 59.300 M345.067 53.467 C 344.920 53.613,344.800 56.303,344.800 59.444 L 344.800 65.154 343.100 65.307 L 341.400 65.460 343.280 65.530 L 345.161 65.600 345.280 59.399 C 345.346 55.989,345.385 53.199,345.367 53.199 C 345.348 53.200,345.213 53.320,345.067 53.467 M370.900 53.496 C 372.165 53.575,374.235 53.575,375.500 53.496 C 376.765 53.416,375.730 53.351,373.200 53.351 C 370.670 53.351,369.635 53.416,370.900 53.496 M117.759 59.200 C 117.759 62.390,117.821 63.695,117.897 62.100 C 117.973 60.505,117.973 57.895,117.897 56.300 C 117.821 54.705,117.759 56.010,117.759 59.200 M216.888 59.277 L 216.800 65.154 215.100 65.307 L 213.400 65.460 215.113 65.530 C 217.283 65.619,217.250 65.728,217.100 58.981 L 216.975 53.400 216.888 59.277 M141.700 55.891 C 142.525 55.978,143.875 55.978,144.700 55.891 C 145.525 55.805,144.850 55.734,143.200 55.734 C 141.550 55.734,140.875 55.805,141.700 55.891 M311.079 55.887 L 313.958 56.034 314.120 57.917 L 314.282 59.800 314.241 57.800 L 314.200 55.800 311.200 55.770 L 308.200 55.739 311.079 55.887 M368.267 55.867 C 368.120 56.013,368.003 56.328,368.006 56.567 C 368.010 56.831,368.133 56.809,368.323 56.510 C 368.543 56.165,370.575 55.985,375.217 55.900 L 381.800 55.779 375.167 55.689 C 371.518 55.640,368.413 55.720,368.267 55.867 M357.301 59.800 C 357.305 60.680,357.387 60.993,357.483 60.495 C 357.579 59.998,357.575 59.278,357.475 58.895 C 357.375 58.513,357.296 58.920,357.301 59.800 M293.361 64.400 C 293.393 65.227,293.608 65.406,294.600 65.437 C 295.681 65.471,295.694 65.459,294.724 65.314 C 294.002 65.206,293.595 64.865,293.486 64.276 C 293.352 63.557,293.330 63.579,293.361 64.400 M146.501 64.800 C 146.611 65.209,147.226 65.415,148.431 65.447 C 150.187 65.493,150.188 65.492,148.605 65.317 C 147.728 65.220,146.859 64.929,146.675 64.670 C 146.444 64.347,146.390 64.388,146.501 64.800 M225.952 65.312 C 226.145 65.505,226.819 65.598,227.451 65.519 C 228.509 65.387,228.481 65.359,227.100 65.168 C 226.240 65.049,225.750 65.110,225.952 65.312 M314.400 65.280 C 314.400 65.456,315.255 65.586,316.300 65.568 C 318.391 65.534,318.222 65.339,315.900 65.109 C 315.075 65.028,314.400 65.104,314.400 65.280 M115.305 65.487 C 115.914 65.579,116.814 65.577,117.305 65.482 C 117.797 65.387,117.300 65.311,116.200 65.314 C 115.100 65.317,114.697 65.395,115.305 65.487 M169.500 65.482 C 169.995 65.578,170.805 65.578,171.300 65.482 C 171.795 65.387,171.390 65.309,170.400 65.309 C 169.410 65.309,169.005 65.387,169.500 65.482 M194.505 65.487 C 195.114 65.579,196.014 65.577,196.505 65.482 C 196.997 65.387,196.500 65.311,195.400 65.314 C 194.300 65.317,193.897 65.395,194.505 65.487 M259.905 65.483 C 260.402 65.579,261.122 65.575,261.505 65.475 C 261.887 65.375,261.480 65.296,260.600 65.301 C 259.720 65.305,259.407 65.387,259.905 65.483 M359.305 65.487 C 359.914 65.579,360.814 65.577,361.305 65.482 C 361.797 65.387,361.300 65.311,360.200 65.314 C 359.100 65.317,358.697 65.395,359.305 65.487 M138.900 65.876 C 139.285 65.976,139.915 65.976,140.300 65.876 C 140.685 65.775,140.370 65.693,139.600 65.693 C 138.830 65.693,138.515 65.775,138.900 65.876 M252.100 65.876 C 252.485 65.976,253.115 65.976,253.500 65.876 C 253.885 65.775,253.570 65.693,252.800 65.693 C 252.030 65.693,251.715 65.775,252.100 65.876 M272.900 65.876 C 273.285 65.976,273.915 65.976,274.300 65.876 C 274.685 65.775,274.370 65.693,273.600 65.693 C 272.830 65.693,272.515 65.775,272.900 65.876 M286.100 65.876 C 286.485 65.976,287.115 65.976,287.500 65.876 C 287.885 65.775,287.570 65.693,286.800 65.693 C 286.030 65.693,285.715 65.775,286.100 65.876 M306.900 65.876 C 307.285 65.976,307.915 65.976,308.300 65.876 C 308.685 65.775,308.370 65.693,307.600 65.693 C 306.830 65.693,306.515 65.775,306.900 65.876 M373.100 65.882 C 373.595 65.978,374.405 65.978,374.900 65.882 C 375.395 65.787,374.990 65.709,374.000 65.709 C 373.010 65.709,372.605 65.787,373.100 65.882 M2.400 67.998 C 2.400 75.363,12.306 90.794,20.298 95.880 C 20.904 96.266,21.490 96.685,21.600 96.811 C 22.402 97.731,29.821 101.523,31.236 101.737 C 31.546 101.784,31.982 101.936,32.204 102.075 C 32.592 102.318,37.260 103.600,37.758 103.600 C 37.891 103.600,38.000 102.617,38.000 101.415 C 38.000 100.173,38.345 98.354,38.800 97.200 C 40.021 94.102,39.888 93.479,37.647 91.834 C 35.700 90.405,33.621 88.288,32.308 86.396 C 31.928 85.848,31.722 85.715,31.851 86.100 C 32.100 86.844,31.419 87.078,30.996 86.393 C 30.858 86.170,30.585 86.086,30.390 86.206 C 30.009 86.441,26.370 85.040,22.800 83.283 L 20.600 82.200 22.000 81.953 L 23.400 81.705 21.894 81.653 C 17.983 81.516,16.627 80.505,18.100 78.826 L 19.000 77.800 17.974 78.700 C 16.537 79.961,16.531 79.958,12.114 76.433 C 8.659 73.675,6.900 71.936,3.223 67.639 L 2.400 66.678 2.400 67.998 M81.000 88.434 C 80.340 88.634,76.560 88.864,72.600 88.945 C 64.549 89.108,62.120 89.616,59.846 91.613 C 58.558 92.744,55.235 98.400,55.858 98.400 C 56.024 98.400,55.959 98.601,55.714 98.846 C 55.387 99.173,54.650 98.911,52.934 97.858 C 48.533 95.154,45.344 94.543,43.443 96.038 C 42.231 96.991,40.650 99.833,41.008 100.414 C 41.140 100.626,41.079 100.800,40.874 100.800 C 40.669 100.800,40.523 101.596,40.550 102.568 L 40.600 104.336 44.309 104.616 C 57.641 105.624,72.497 99.439,81.574 89.100 C 82.105 88.495,82.463 88.015,82.370 88.034 C 82.276 88.053,81.660 88.233,81.000 88.434 " stroke="none" fill="#596d78" fill-rule="evenodd"></path><path id="path7" d="M118.900 37.899 C 121.485 37.968,125.715 37.968,128.300 37.899 C 130.885 37.829,128.770 37.772,123.600 37.772 C 118.430 37.772,116.315 37.829,118.900 37.899 M213.382 38.103 C 213.276 38.379,213.239 44.724,213.300 52.203 L 213.411 65.800 213.506 51.920 L 213.600 38.040 215.900 37.896 L 218.200 37.751 215.887 37.676 C 214.340 37.625,213.511 37.766,213.382 38.103 M237.100 37.889 C 237.815 37.978,238.985 37.978,239.700 37.889 C 240.415 37.801,239.830 37.728,238.400 37.728 C 236.970 37.728,236.385 37.801,237.100 37.889 M344.500 37.897 C 346.205 37.972,348.995 37.972,350.700 37.897 C 352.405 37.822,351.010 37.761,347.600 37.761 C 344.190 37.761,342.795 37.822,344.500 37.897 M4.216 43.092 C 1.963 48.979,1.462 52.000,1.513 59.400 C 1.549 64.734,2.209 71.158,2.359 67.639 L 2.400 66.678 3.223 67.639 C 6.900 71.936,8.659 73.675,12.114 76.433 C 14.296 78.175,16.334 79.600,16.641 79.600 C 17.624 79.600,17.802 79.528,17.703 79.168 C 17.596 78.782,24.518 74.000,25.185 74.000 C 25.413 74.000,25.600 73.820,25.600 73.600 C 25.600 73.380,25.441 73.200,25.246 73.200 C 23.986 73.200,17.563 68.151,15.914 65.865 L 15.095 64.729 17.343 65.010 C 19.824 65.320,22.400 64.988,22.400 64.358 C 22.400 64.135,22.239 64.052,22.042 64.174 C 21.131 64.737,17.787 61.972,15.097 58.434 C 14.164 57.206,12.995 55.753,12.500 55.205 C 12.005 54.657,11.600 54.041,11.600 53.836 C 11.600 53.631,11.363 53.179,11.074 52.831 C 9.411 50.834,6.597 43.224,6.293 39.900 C 6.166 38.518,5.682 39.262,4.216 43.092 M121.500 40.698 C 123.535 40.771,126.865 40.771,128.900 40.698 C 130.935 40.625,129.270 40.566,125.200 40.566 C 121.130 40.566,119.465 40.625,121.500 40.698 M347.100 40.695 C 348.255 40.776,350.145 40.776,351.300 40.695 C 352.455 40.614,351.510 40.548,349.200 40.548 C 346.890 40.548,345.945 40.614,347.100 40.695 M360.901 45.400 C 360.905 46.280,360.987 46.593,361.083 46.095 C 361.179 45.598,361.175 44.878,361.075 44.495 C 360.975 44.113,360.896 44.520,360.901 45.400 M168.575 55.200 C 168.575 61.030,168.631 63.415,168.699 60.500 C 168.767 57.585,168.767 52.815,168.699 49.900 C 168.631 46.985,168.575 49.370,168.575 55.200 M265.301 46.200 C 265.305 47.080,265.387 47.393,265.483 46.895 C 265.579 46.398,265.575 45.678,265.475 45.295 C 265.375 44.913,265.296 45.320,265.301 46.200 M292.967 52.400 C 292.967 56.690,293.026 58.445,293.098 56.300 C 293.170 54.155,293.170 50.645,293.098 48.500 C 293.026 46.355,292.967 48.110,292.967 52.400 M296.575 55.200 C 296.575 61.030,296.631 63.415,296.699 60.500 C 296.767 57.585,296.767 52.815,296.699 49.900 C 296.631 46.985,296.575 49.370,296.575 55.200 M279.764 51.800 C 279.763 55.540,279.823 57.124,279.897 55.320 C 279.971 53.515,279.972 50.455,279.898 48.520 C 279.825 46.584,279.764 48.060,279.764 51.800 M237.324 51.000 C 237.326 52.320,237.401 52.812,237.490 52.093 C 237.579 51.374,237.577 50.294,237.486 49.693 C 237.395 49.092,237.322 49.680,237.324 51.000 M149.763 56.800 C 149.763 60.430,149.823 61.915,149.898 60.100 C 149.972 58.285,149.972 55.315,149.898 53.500 C 149.823 51.685,149.763 53.170,149.763 56.800 M172.167 58.000 C 172.167 62.290,172.226 64.045,172.298 61.900 C 172.370 59.755,172.370 56.245,172.298 54.100 C 172.226 51.955,172.167 53.710,172.167 58.000 M347.300 50.694 C 348.345 50.776,350.055 50.776,351.100 50.694 C 352.145 50.612,351.290 50.544,349.200 50.544 C 347.110 50.544,346.255 50.612,347.300 50.694 M146.093 52.000 C 146.093 52.770,146.175 53.085,146.276 52.700 C 146.376 52.315,146.376 51.685,146.276 51.300 C 146.175 50.915,146.093 51.230,146.093 52.000 M216.901 52.200 C 216.905 53.080,216.987 53.393,217.083 52.895 C 217.179 52.398,217.175 51.678,217.075 51.295 C 216.975 50.913,216.896 51.320,216.901 52.200 M381.720 54.000 C 381.720 55.210,381.795 55.705,381.887 55.100 C 381.978 54.495,381.978 53.505,381.887 52.900 C 381.795 52.295,381.720 52.790,381.720 54.000 M364.528 55.200 C 364.528 56.630,364.601 57.215,364.689 56.500 C 364.778 55.785,364.778 54.615,364.689 53.900 C 364.601 53.185,364.528 53.770,364.528 55.200 M347.513 53.495 C 348.676 53.576,350.476 53.576,351.513 53.493 C 352.551 53.411,351.600 53.345,349.400 53.346 C 347.200 53.347,346.351 53.414,347.513 53.495 M90.026 59.985 C 86.648 65.614,86.135 67.418,87.793 67.834 C 89.174 68.181,91.321 67.197,92.238 65.798 C 92.883 64.814,93.668 55.200,93.103 55.200 C 92.989 55.200,91.605 57.353,90.026 59.985 M146.109 57.600 C 146.109 58.590,146.187 58.995,146.282 58.500 C 146.378 58.005,146.378 57.195,146.282 56.700 C 146.187 56.205,146.109 56.610,146.109 57.600 M360.928 60.400 C 360.928 61.830,361.001 62.415,361.089 61.700 C 361.178 60.985,361.178 59.815,361.089 59.100 C 361.001 58.385,360.928 58.970,360.928 60.400 M23.200 81.575 C 23.200 81.781,22.615 82.006,21.900 82.075 C 20.601 82.200,20.601 82.201,22.800 83.283 C 26.370 85.040,30.009 86.441,30.390 86.206 C 30.585 86.086,30.858 86.170,30.996 86.393 C 31.397 87.042,32.110 86.863,31.847 86.179 C 31.688 85.765,31.768 85.657,32.087 85.854 C 32.349 86.016,31.862 85.309,31.005 84.283 C 28.879 81.741,23.200 79.770,23.200 81.575 " stroke="none" fill="#798f9a" fill-rule="evenodd"></path><path id="path8" d="M22.800 20.075 C 17.194 23.567,12.459 28.112,8.919 33.400 C 6.964 36.321,5.468 39.200,5.906 39.200 C 6.083 39.200,6.257 39.515,6.293 39.900 C 6.597 43.224,9.411 50.834,11.074 52.831 C 11.363 53.179,11.600 53.631,11.600 53.836 C 11.600 54.041,12.005 54.657,12.500 55.205 C 12.995 55.753,14.154 57.191,15.076 58.401 C 17.877 62.076,20.220 64.019,22.094 64.217 C 23.182 64.332,22.638 62.785,19.731 57.505 C 16.825 52.225,16.824 52.248,19.820 51.377 C 22.579 50.575,22.647 50.321,21.932 43.499 C 21.302 37.481,21.399 34.237,22.201 34.545 C 22.601 34.699,22.729 33.764,22.771 30.386 C 22.804 27.712,23.052 25.386,23.413 24.364 C 23.736 23.449,24.000 22.384,24.000 21.999 C 24.000 21.613,24.270 21.074,24.600 20.800 C 24.930 20.526,25.200 19.979,25.200 19.584 C 25.200 19.190,25.425 18.776,25.700 18.665 C 25.975 18.554,26.020 18.462,25.800 18.460 C 25.580 18.458,24.230 19.185,22.800 20.075 M73.294 21.752 C 73.675 22.042,73.882 22.385,73.753 22.514 C 73.624 22.643,73.821 23.659,74.191 24.773 C 74.648 26.150,74.821 27.743,74.732 29.755 L 74.600 32.714 77.464 29.857 L 80.328 27.000 78.864 25.676 C 76.872 23.873,73.306 21.197,72.917 21.213 C 72.743 21.220,72.912 21.463,73.294 21.752 M82.553 34.654 C 82.824 41.242,83.416 42.973,85.762 44.039 C 87.570 44.860,90.662 45.118,89.600 44.359 C 89.120 44.016,89.183 43.971,89.916 44.132 C 90.794 44.325,90.887 43.084,90.046 42.400 C 89.911 42.290,89.738 41.846,89.662 41.412 C 89.367 39.720,85.420 33.002,83.193 30.400 L 82.337 29.400 82.553 34.654 M322.581 50.600 C 322.581 58.960,322.634 62.437,322.699 58.326 C 322.764 54.216,322.764 47.376,322.700 43.126 C 322.635 38.877,322.582 42.240,322.581 50.600 M240.980 51.800 C 240.980 59.500,241.034 62.593,241.099 58.674 C 241.165 54.755,241.165 48.455,241.099 44.674 C 241.034 40.893,240.980 44.100,240.980 51.800 M268.565 40.148 C 268.449 40.449,268.421 41.664,268.503 42.848 L 268.652 45.000 268.726 42.522 L 268.800 40.044 270.700 39.894 L 272.600 39.744 270.687 39.672 C 269.384 39.623,268.708 39.775,268.565 40.148 M345.354 45.600 C 345.354 48.350,345.418 49.475,345.496 48.100 C 345.574 46.725,345.574 44.475,345.496 43.100 C 345.418 41.725,345.354 42.850,345.354 45.600 M237.194 46.719 L 237.387 49.000 237.518 47.044 C 237.590 45.969,237.503 44.942,237.324 44.763 C 237.146 44.584,237.087 45.464,237.194 46.719 M154.975 55.200 C 154.975 61.030,155.031 63.415,155.099 60.500 C 155.167 57.585,155.167 52.815,155.099 49.900 C 155.031 46.985,154.975 49.370,154.975 55.200 M249.365 51.600 C 249.365 55.450,249.425 57.025,249.498 55.100 C 249.571 53.175,249.571 50.025,249.498 48.100 C 249.425 46.175,249.365 47.750,249.365 51.600 M258.567 52.400 C 258.567 56.690,258.626 58.445,258.698 56.300 C 258.770 54.155,258.770 50.645,258.698 48.500 C 258.626 46.355,258.567 48.110,258.567 52.400 M268.565 54.800 C 268.565 58.650,268.625 60.225,268.698 58.300 C 268.771 56.375,268.771 53.225,268.698 51.300 C 268.625 49.375,268.565 50.950,268.565 54.800 M216.893 49.600 C 216.893 50.370,216.975 50.685,217.076 50.300 C 217.176 49.915,217.176 49.285,217.076 48.900 C 216.975 48.515,216.893 48.830,216.893 49.600 M121.300 50.297 C 123.005 50.372,125.795 50.372,127.500 50.297 C 129.205 50.222,127.810 50.161,124.400 50.161 C 120.990 50.161,119.595 50.222,121.300 50.297 M135.800 50.400 L 133.800 50.674 135.676 50.737 C 136.708 50.772,137.664 50.620,137.800 50.400 C 137.936 50.180,137.992 50.028,137.924 50.063 C 137.856 50.097,136.900 50.249,135.800 50.400 M302.905 50.687 C 303.514 50.779,304.414 50.777,304.905 50.682 C 305.397 50.587,304.900 50.511,303.800 50.514 C 302.700 50.517,302.297 50.595,302.905 50.687 M317.760 56.200 C 317.761 59.500,317.822 60.797,317.898 59.082 C 317.973 57.367,317.972 54.667,317.897 53.082 C 317.821 51.497,317.759 52.900,317.760 56.200 M197.365 58.600 C 197.366 62.560,197.426 64.126,197.498 62.080 C 197.571 60.034,197.571 56.794,197.498 54.880 C 197.424 52.966,197.365 54.640,197.365 58.600 M180.965 58.800 C 180.965 62.650,181.025 64.225,181.098 62.300 C 181.171 60.375,181.171 57.225,181.098 55.300 C 181.025 53.375,180.965 54.950,180.965 58.800 M141.700 53.491 C 142.525 53.578,143.875 53.578,144.700 53.491 C 145.525 53.405,144.850 53.334,143.200 53.334 C 141.550 53.334,140.875 53.405,141.700 53.491 M309.491 53.489 C 310.201 53.577,311.461 53.579,312.291 53.492 C 313.121 53.405,312.540 53.333,311.000 53.331 C 309.460 53.329,308.781 53.400,309.491 53.489 M345.361 59.600 C 345.361 63.010,345.422 64.405,345.497 62.700 C 345.572 60.995,345.572 58.205,345.497 56.500 C 345.422 54.795,345.361 56.190,345.361 59.600 M1.293 63.200 C 1.293 63.970,1.375 64.285,1.476 63.900 C 1.576 63.515,1.576 62.885,1.476 62.500 C 1.375 62.115,1.293 62.430,1.293 63.200 M21.105 81.483 C 21.602 81.579,22.322 81.575,22.705 81.475 C 23.087 81.375,22.680 81.296,21.800 81.301 C 20.920 81.305,20.607 81.387,21.105 81.483 M38.000 101.767 C 38.000 102.806,37.794 103.616,37.500 103.735 C 37.201 103.856,37.282 103.950,37.700 103.968 C 38.278 103.994,38.400 103.650,38.400 102.000 C 38.400 100.900,38.310 100.000,38.200 100.000 C 38.090 100.000,38.000 100.795,38.000 101.767 M45.700 105.091 C 46.525 105.178,47.875 105.178,48.700 105.091 C 49.525 105.005,48.850 104.934,47.200 104.934 C 45.550 104.934,44.875 105.005,45.700 105.091 " stroke="none" fill="#a1b7c4" fill-rule="evenodd"></path><path id="path9" d="M43.200 12.854 C 36.894 13.881,33.874 14.599,30.676 15.830 C 26.969 17.258,22.631 19.529,21.106 20.842 C 20.608 21.270,21.280 20.986,22.600 20.209 C 25.073 18.755,26.179 19.055,24.635 20.761 C 24.286 21.147,24.000 21.741,24.000 22.081 C 24.000 22.421,23.742 23.431,23.427 24.324 C 22.637 26.563,22.446 35.282,23.182 35.527 C 23.537 35.646,23.606 35.523,23.392 35.152 C 23.203 34.826,23.221 34.737,23.436 34.933 C 23.636 35.117,23.804 35.387,23.809 35.533 C 23.813 35.680,24.813 36.790,26.030 38.000 C 27.246 39.210,28.974 41.280,29.869 42.600 C 32.822 46.955,34.761 49.143,36.646 50.248 L 38.507 51.339 39.666 49.969 C 40.304 49.216,41.369 47.835,42.032 46.900 C 43.837 44.357,45.117 45.352,46.793 50.600 C 47.982 54.320,51.128 58.826,50.284 55.599 C 50.169 55.159,50.238 54.900,50.437 55.023 C 50.637 55.146,50.800 54.944,50.800 54.574 C 50.800 51.295,55.042 42.007,58.868 36.910 C 62.415 32.183,62.105 32.114,63.761 38.000 C 65.258 43.321,66.238 43.805,69.090 40.630 C 70.913 38.600,73.800 34.562,73.800 34.042 C 73.800 33.835,73.964 33.517,74.164 33.333 C 74.376 33.140,74.408 33.210,74.241 33.500 C 73.574 34.658,74.384 33.820,76.562 31.100 L 78.883 28.200 76.742 30.538 L 74.600 32.877 74.732 29.837 C 74.821 27.768,74.652 26.161,74.202 24.808 C 73.108 21.511,73.969 21.377,77.335 24.322 C 78.532 25.368,78.719 25.459,78.000 24.645 C 74.722 20.934,65.851 16.098,59.214 14.404 C 52.828 12.773,47.097 12.218,43.200 12.854 M16.761 24.140 C 15.132 25.537,13.440 27.112,13.000 27.640 C 12.560 28.168,13.190 27.698,14.400 26.595 C 15.610 25.493,17.410 23.921,18.400 23.103 C 19.390 22.285,20.092 21.612,19.961 21.608 C 19.830 21.604,18.390 22.743,16.761 24.140 M51.305 28.483 C 53.181 30.661,51.876 34.707,49.500 34.079 C 49.335 34.036,49.200 34.200,49.200 34.443 C 49.200 35.230,47.047 34.424,46.102 33.283 C 43.257 29.852,48.398 25.108,51.305 28.483 M82.032 29.676 C 82.049 30.199,82.157 30.363,82.280 30.054 C 82.437 29.660,82.771 29.827,83.482 30.654 L 84.466 31.800 83.614 30.512 C 82.489 28.810,81.993 28.548,82.032 29.676 M323.705 35.487 C 324.314 35.579,325.214 35.577,325.705 35.482 C 326.197 35.387,325.700 35.311,324.600 35.314 C 323.500 35.317,323.097 35.395,323.705 35.487 M326.581 50.600 C 326.581 58.740,326.634 62.013,326.700 57.874 C 326.765 53.734,326.765 47.074,326.699 43.074 C 326.634 39.073,326.581 42.460,326.581 50.600 M82.501 38.200 C 82.505 39.080,82.587 39.393,82.683 38.895 C 82.779 38.398,82.775 37.678,82.675 37.295 C 82.575 36.913,82.496 37.320,82.501 38.200 M114.185 37.695 C 114.077 37.975,114.039 44.414,114.100 52.002 L 114.211 65.800 114.305 51.700 L 114.400 37.600 123.576 37.600 L 132.752 37.600 132.918 39.003 L 133.084 40.407 133.042 38.903 L 133.000 37.400 123.690 37.293 C 116.437 37.209,114.337 37.298,114.185 37.695 M214.707 37.490 C 215.426 37.579,216.506 37.577,217.107 37.486 C 217.708 37.395,217.120 37.322,215.800 37.324 C 214.480 37.326,213.988 37.401,214.707 37.490 M236.800 37.427 C 238.144 37.727,241.111 37.780,240.938 37.500 C 240.836 37.335,239.728 37.221,238.476 37.246 C 237.224 37.272,236.470 37.353,236.800 37.427 M341.382 37.702 C 341.276 37.979,341.239 44.414,341.300 52.002 L 341.411 65.800 341.505 51.711 L 341.600 37.623 347.100 37.499 L 352.600 37.375 347.087 37.288 C 342.966 37.222,341.526 37.327,341.382 37.702 M21.701 41.000 C 21.705 41.880,21.787 42.193,21.883 41.695 C 21.979 41.198,21.975 40.478,21.875 40.095 C 21.775 39.713,21.696 40.120,21.701 41.000 M24.093 40.800 C 24.093 41.570,24.175 41.885,24.276 41.500 C 24.376 41.115,24.376 40.485,24.276 40.100 C 24.175 39.715,24.093 40.030,24.093 40.800 M82.832 40.824 C 82.814 41.166,83.080 41.796,83.422 42.224 C 84.034 42.988,84.038 42.987,83.676 42.200 C 83.474 41.760,83.208 41.130,83.086 40.800 C 82.893 40.282,82.859 40.285,82.832 40.824 M118.151 45.600 C 118.151 48.130,118.216 49.165,118.296 47.900 C 118.375 46.635,118.375 44.565,118.296 43.300 C 118.216 42.035,118.151 43.070,118.151 45.600 M22.109 44.400 C 22.109 45.390,22.187 45.795,22.282 45.300 C 22.378 44.805,22.378 43.995,22.282 43.500 C 22.187 43.005,22.109 43.410,22.109 44.400 M245.366 52.000 C 245.366 56.070,245.425 57.735,245.498 55.700 C 245.571 53.665,245.571 50.335,245.498 48.300 C 245.425 46.265,245.366 47.930,245.366 52.000 M262.575 55.200 C 262.575 61.030,262.631 63.415,262.699 60.500 C 262.767 57.585,262.767 52.815,262.699 49.900 C 262.631 46.985,262.575 49.370,262.575 55.200 M168.174 55.200 C 168.174 60.810,168.230 63.105,168.299 60.300 C 168.368 57.495,168.368 52.905,168.299 50.100 C 168.230 47.295,168.174 49.590,168.174 55.200 M216.909 46.800 C 216.909 47.790,216.987 48.195,217.082 47.700 C 217.178 47.205,217.178 46.395,217.082 45.900 C 216.987 45.405,216.909 45.810,216.909 46.800 M22.501 47.800 C 22.505 48.680,22.587 48.993,22.683 48.495 C 22.779 47.998,22.775 47.278,22.675 46.895 C 22.575 46.513,22.496 46.920,22.501 47.800 M265.900 47.882 C 266.395 47.978,267.205 47.978,267.700 47.882 C 268.195 47.787,267.790 47.709,266.800 47.709 C 265.810 47.709,265.405 47.787,265.900 47.882 M273.300 47.887 C 273.905 47.978,274.895 47.978,275.500 47.887 C 276.105 47.795,275.610 47.720,274.400 47.720 C 273.190 47.720,272.695 47.795,273.300 47.887 M130.731 51.600 L 130.882 53.179 124.541 53.290 L 118.200 53.400 118.184 59.500 L 118.168 65.601 118.294 59.611 L 118.421 53.620 124.710 53.510 L 131.000 53.400 131.129 52.049 C 131.200 51.306,131.106 50.546,130.920 50.360 C 130.733 50.173,130.649 50.731,130.731 51.600 M313.701 51.800 C 313.705 52.680,313.787 52.993,313.883 52.495 C 313.979 51.998,313.975 51.278,313.875 50.895 C 313.775 50.513,313.696 50.920,313.701 51.800 M184.965 58.600 C 184.966 62.560,185.026 64.126,185.098 62.080 C 185.171 60.034,185.171 56.794,185.098 54.880 C 185.024 52.966,184.965 54.640,184.965 58.600 M236.965 58.800 C 236.965 62.650,237.025 64.225,237.098 62.300 C 237.171 60.375,237.171 57.225,237.098 55.300 C 237.025 53.375,236.965 54.950,236.965 58.800 M371.116 53.097 C 372.499 53.175,374.659 53.174,375.916 53.095 C 377.172 53.016,376.040 52.952,373.400 52.953 C 370.760 52.953,369.732 53.018,371.116 53.097 M0.940 58.800 C 0.940 60.670,1.009 61.435,1.093 60.500 C 1.177 59.565,1.177 58.035,1.093 57.100 C 1.009 56.165,0.940 56.930,0.940 58.800 M141.700 56.291 C 142.525 56.378,143.875 56.378,144.700 56.291 C 145.525 56.205,144.850 56.134,143.200 56.134 C 141.550 56.134,140.875 56.205,141.700 56.291 M311.078 56.290 L 313.556 56.436 313.717 58.021 L 313.878 59.606 313.839 57.903 L 313.800 56.200 311.200 56.173 L 308.600 56.145 311.078 56.290 M371.700 56.298 C 373.625 56.371,376.775 56.371,378.700 56.298 C 380.625 56.225,379.050 56.165,375.200 56.165 C 371.350 56.165,369.775 56.225,371.700 56.298 M93.328 58.800 C 93.328 60.230,93.401 60.815,93.489 60.100 C 93.578 59.385,93.578 58.215,93.489 57.500 C 93.401 56.785,93.328 57.370,93.328 58.800 M18.705 65.483 C 19.202 65.579,19.922 65.575,20.305 65.475 C 20.687 65.375,20.280 65.296,19.400 65.301 C 18.520 65.305,18.207 65.387,18.705 65.483 M16.400 66.525 C 16.400 66.594,16.985 67.179,17.700 67.825 L 19.000 69.000 17.825 67.700 C 16.730 66.488,16.400 66.216,16.400 66.525 M170.794 76.719 L 170.987 79.000 171.118 77.044 C 171.190 75.969,171.103 74.942,170.924 74.763 C 170.746 74.584,170.687 75.464,170.794 76.719 M247.757 84.000 C 247.757 86.970,247.820 88.185,247.897 86.700 C 247.974 85.215,247.974 82.785,247.897 81.300 C 247.820 79.815,247.757 81.030,247.757 84.000 M200.134 83.600 C 200.134 85.250,200.205 85.925,200.291 85.100 C 200.378 84.275,200.378 82.925,200.291 82.100 C 200.205 81.275,200.134 81.950,200.134 83.600 M170.901 82.600 C 170.905 83.480,170.987 83.793,171.083 83.295 C 171.179 82.798,171.175 82.078,171.075 81.695 C 170.975 81.313,170.896 81.720,170.901 82.600 M176.493 82.400 C 176.493 83.170,176.575 83.485,176.676 83.100 C 176.776 82.715,176.776 82.085,176.676 81.700 C 176.575 81.315,176.493 81.630,176.493 82.400 M210.291 83.089 C 211.001 83.177,212.261 83.179,213.091 83.092 C 213.921 83.005,213.340 82.933,211.800 82.931 C 210.260 82.929,209.581 83.000,210.291 83.089 M281.491 83.089 C 282.201 83.177,283.461 83.179,284.291 83.092 C 285.121 83.005,284.540 82.933,283.000 82.931 C 281.460 82.929,280.781 83.000,281.491 83.089 M335.462 83.100 C 335.360 83.265,336.114 83.347,337.138 83.283 C 340.312 83.084,340.709 82.911,338.124 82.854 C 336.762 82.825,335.564 82.935,335.462 83.100 M345.491 83.089 C 346.201 83.177,347.461 83.179,348.291 83.092 C 349.121 83.005,348.540 82.933,347.000 82.931 C 345.460 82.929,344.781 83.000,345.491 83.089 M11.600 88.525 C 11.600 88.594,12.185 89.179,12.900 89.825 L 14.200 91.000 13.025 89.700 C 11.930 88.488,11.600 88.216,11.600 88.525 M69.491 88.689 C 70.201 88.777,71.461 88.779,72.291 88.692 C 73.121 88.605,72.540 88.533,71.000 88.531 C 69.460 88.529,68.781 88.600,69.491 88.689 " stroke="none" fill="#c8d3d9" fill-rule="evenodd"></path></g></svg>